G04 #@! TF.GenerationSoftware,KiCad,Pcbnew,8.0.1*
G04 #@! TF.CreationDate,2024-10-21T20:58:36+13:00*
G04 #@! TF.ProjectId,aurorawatchpcb,6175726f-7261-4776-9174-63687063622e,rev?*
G04 #@! TF.SameCoordinates,Original*
G04 #@! TF.FileFunction,Legend,Top*
G04 #@! TF.FilePolarity,Positive*
%FSLAX46Y46*%
G04 Gerber Fmt 4.6, Leading zero omitted, Abs format (unit mm)*
G04 Created by KiCad (PCBNEW 8.0.1) date 2024-10-21 20:58:36*
%MOMM*%
%LPD*%
G01*
G04 APERTURE LIST*
G04 Aperture macros list*
%AMRoundRect*
0 Rectangle with rounded corners*
0 $1 Rounding radius*
0 $2 $3 $4 $5 $6 $7 $8 $9 X,Y pos of 4 corners*
0 Add a 4 corners polygon primitive as box body*
4,1,4,$2,$3,$4,$5,$6,$7,$8,$9,$2,$3,0*
0 Add four circle primitives for the rounded corners*
1,1,$1+$1,$2,$3*
1,1,$1+$1,$4,$5*
1,1,$1+$1,$6,$7*
1,1,$1+$1,$8,$9*
0 Add four rect primitives between the rounded corners*
20,1,$1+$1,$2,$3,$4,$5,0*
20,1,$1+$1,$4,$5,$6,$7,0*
20,1,$1+$1,$6,$7,$8,$9,0*
20,1,$1+$1,$8,$9,$2,$3,0*%
G04 Aperture macros list end*
%ADD10C,0.150000*%
%ADD11C,0.125000*%
%ADD12C,0.120000*%
%ADD13O,1.700000X1.700000*%
%ADD14R,1.700000X1.700000*%
%ADD15O,1.500000X1.500000*%
%ADD16O,1.800000X1.800000*%
%ADD17RoundRect,0.250000X0.625000X-0.400000X0.625000X0.400000X-0.625000X0.400000X-0.625000X-0.400000X0*%
%ADD18C,1.400000*%
%ADD19RoundRect,0.250001X-0.624999X0.462499X-0.624999X-0.462499X0.624999X-0.462499X0.624999X0.462499X0*%
G04 APERTURE END LIST*
D10*
X107854819Y-80456666D02*
X107378628Y-80789999D01*
X107854819Y-81028094D02*
X106854819Y-81028094D01*
X106854819Y-81028094D02*
X106854819Y-80647142D01*
X106854819Y-80647142D02*
X106902438Y-80551904D01*
X106902438Y-80551904D02*
X106950057Y-80504285D01*
X106950057Y-80504285D02*
X107045295Y-80456666D01*
X107045295Y-80456666D02*
X107188152Y-80456666D01*
X107188152Y-80456666D02*
X107283390Y-80504285D01*
X107283390Y-80504285D02*
X107331009Y-80551904D01*
X107331009Y-80551904D02*
X107378628Y-80647142D01*
X107378628Y-80647142D02*
X107378628Y-81028094D01*
X106854819Y-80123332D02*
X106854819Y-79504285D01*
X106854819Y-79504285D02*
X107235771Y-79837618D01*
X107235771Y-79837618D02*
X107235771Y-79694761D01*
X107235771Y-79694761D02*
X107283390Y-79599523D01*
X107283390Y-79599523D02*
X107331009Y-79551904D01*
X107331009Y-79551904D02*
X107426247Y-79504285D01*
X107426247Y-79504285D02*
X107664342Y-79504285D01*
X107664342Y-79504285D02*
X107759580Y-79551904D01*
X107759580Y-79551904D02*
X107807200Y-79599523D01*
X107807200Y-79599523D02*
X107854819Y-79694761D01*
X107854819Y-79694761D02*
X107854819Y-79980475D01*
X107854819Y-79980475D02*
X107807200Y-80075713D01*
X107807200Y-80075713D02*
X107759580Y-80123332D01*
X112934819Y-80456666D02*
X112458628Y-80789999D01*
X112934819Y-81028094D02*
X111934819Y-81028094D01*
X111934819Y-81028094D02*
X111934819Y-80647142D01*
X111934819Y-80647142D02*
X111982438Y-80551904D01*
X111982438Y-80551904D02*
X112030057Y-80504285D01*
X112030057Y-80504285D02*
X112125295Y-80456666D01*
X112125295Y-80456666D02*
X112268152Y-80456666D01*
X112268152Y-80456666D02*
X112363390Y-80504285D01*
X112363390Y-80504285D02*
X112411009Y-80551904D01*
X112411009Y-80551904D02*
X112458628Y-80647142D01*
X112458628Y-80647142D02*
X112458628Y-81028094D01*
X112030057Y-80075713D02*
X111982438Y-80028094D01*
X111982438Y-80028094D02*
X111934819Y-79932856D01*
X111934819Y-79932856D02*
X111934819Y-79694761D01*
X111934819Y-79694761D02*
X111982438Y-79599523D01*
X111982438Y-79599523D02*
X112030057Y-79551904D01*
X112030057Y-79551904D02*
X112125295Y-79504285D01*
X112125295Y-79504285D02*
X112220533Y-79504285D01*
X112220533Y-79504285D02*
X112363390Y-79551904D01*
X112363390Y-79551904D02*
X112934819Y-80123332D01*
X112934819Y-80123332D02*
X112934819Y-79504285D01*
X118014819Y-80456666D02*
X117538628Y-80789999D01*
X118014819Y-81028094D02*
X117014819Y-81028094D01*
X117014819Y-81028094D02*
X117014819Y-80647142D01*
X117014819Y-80647142D02*
X117062438Y-80551904D01*
X117062438Y-80551904D02*
X117110057Y-80504285D01*
X117110057Y-80504285D02*
X117205295Y-80456666D01*
X117205295Y-80456666D02*
X117348152Y-80456666D01*
X117348152Y-80456666D02*
X117443390Y-80504285D01*
X117443390Y-80504285D02*
X117491009Y-80551904D01*
X117491009Y-80551904D02*
X117538628Y-80647142D01*
X117538628Y-80647142D02*
X117538628Y-81028094D01*
X118014819Y-79504285D02*
X118014819Y-80075713D01*
X118014819Y-79789999D02*
X117014819Y-79789999D01*
X117014819Y-79789999D02*
X117157676Y-79885237D01*
X117157676Y-79885237D02*
X117252914Y-79980475D01*
X117252914Y-79980475D02*
X117300533Y-80075713D01*
D11*
X113138095Y-120213595D02*
X113290476Y-120213595D01*
X113290476Y-120213595D02*
X113366666Y-120251690D01*
X113366666Y-120251690D02*
X113442857Y-120327880D01*
X113442857Y-120327880D02*
X113480952Y-120480261D01*
X113480952Y-120480261D02*
X113480952Y-120746928D01*
X113480952Y-120746928D02*
X113442857Y-120899309D01*
X113442857Y-120899309D02*
X113366666Y-120975500D01*
X113366666Y-120975500D02*
X113290476Y-121013595D01*
X113290476Y-121013595D02*
X113138095Y-121013595D01*
X113138095Y-121013595D02*
X113061904Y-120975500D01*
X113061904Y-120975500D02*
X112985714Y-120899309D01*
X112985714Y-120899309D02*
X112947618Y-120746928D01*
X112947618Y-120746928D02*
X112947618Y-120480261D01*
X112947618Y-120480261D02*
X112985714Y-120327880D01*
X112985714Y-120327880D02*
X113061904Y-120251690D01*
X113061904Y-120251690D02*
X113138095Y-120213595D01*
X114204761Y-121013595D02*
X113823809Y-121013595D01*
X113823809Y-121013595D02*
X113823809Y-120213595D01*
X114471428Y-120594547D02*
X114738094Y-120594547D01*
X114852380Y-121013595D02*
X114471428Y-121013595D01*
X114471428Y-121013595D02*
X114471428Y-120213595D01*
X114471428Y-120213595D02*
X114852380Y-120213595D01*
X115195238Y-121013595D02*
X115195238Y-120213595D01*
X115195238Y-120213595D02*
X115385714Y-120213595D01*
X115385714Y-120213595D02*
X115500000Y-120251690D01*
X115500000Y-120251690D02*
X115576190Y-120327880D01*
X115576190Y-120327880D02*
X115614285Y-120404071D01*
X115614285Y-120404071D02*
X115652381Y-120556452D01*
X115652381Y-120556452D02*
X115652381Y-120670738D01*
X115652381Y-120670738D02*
X115614285Y-120823119D01*
X115614285Y-120823119D02*
X115576190Y-120899309D01*
X115576190Y-120899309D02*
X115500000Y-120975500D01*
X115500000Y-120975500D02*
X115385714Y-121013595D01*
X115385714Y-121013595D02*
X115195238Y-121013595D01*
D10*
X111494819Y-73345594D02*
X110494819Y-73345594D01*
X110494819Y-73345594D02*
X110494819Y-73107499D01*
X110494819Y-73107499D02*
X110542438Y-72964642D01*
X110542438Y-72964642D02*
X110637676Y-72869404D01*
X110637676Y-72869404D02*
X110732914Y-72821785D01*
X110732914Y-72821785D02*
X110923390Y-72774166D01*
X110923390Y-72774166D02*
X111066247Y-72774166D01*
X111066247Y-72774166D02*
X111256723Y-72821785D01*
X111256723Y-72821785D02*
X111351961Y-72869404D01*
X111351961Y-72869404D02*
X111447200Y-72964642D01*
X111447200Y-72964642D02*
X111494819Y-73107499D01*
X111494819Y-73107499D02*
X111494819Y-73345594D01*
X110494819Y-72440832D02*
X110494819Y-71821785D01*
X110494819Y-71821785D02*
X110875771Y-72155118D01*
X110875771Y-72155118D02*
X110875771Y-72012261D01*
X110875771Y-72012261D02*
X110923390Y-71917023D01*
X110923390Y-71917023D02*
X110971009Y-71869404D01*
X110971009Y-71869404D02*
X111066247Y-71821785D01*
X111066247Y-71821785D02*
X111304342Y-71821785D01*
X111304342Y-71821785D02*
X111399580Y-71869404D01*
X111399580Y-71869404D02*
X111447200Y-71917023D01*
X111447200Y-71917023D02*
X111494819Y-72012261D01*
X111494819Y-72012261D02*
X111494819Y-72297975D01*
X111494819Y-72297975D02*
X111447200Y-72393213D01*
X111447200Y-72393213D02*
X111399580Y-72440832D01*
X116574819Y-73345594D02*
X115574819Y-73345594D01*
X115574819Y-73345594D02*
X115574819Y-73107499D01*
X115574819Y-73107499D02*
X115622438Y-72964642D01*
X115622438Y-72964642D02*
X115717676Y-72869404D01*
X115717676Y-72869404D02*
X115812914Y-72821785D01*
X115812914Y-72821785D02*
X116003390Y-72774166D01*
X116003390Y-72774166D02*
X116146247Y-72774166D01*
X116146247Y-72774166D02*
X116336723Y-72821785D01*
X116336723Y-72821785D02*
X116431961Y-72869404D01*
X116431961Y-72869404D02*
X116527200Y-72964642D01*
X116527200Y-72964642D02*
X116574819Y-73107499D01*
X116574819Y-73107499D02*
X116574819Y-73345594D01*
X115670057Y-72393213D02*
X115622438Y-72345594D01*
X115622438Y-72345594D02*
X115574819Y-72250356D01*
X115574819Y-72250356D02*
X115574819Y-72012261D01*
X115574819Y-72012261D02*
X115622438Y-71917023D01*
X115622438Y-71917023D02*
X115670057Y-71869404D01*
X115670057Y-71869404D02*
X115765295Y-71821785D01*
X115765295Y-71821785D02*
X115860533Y-71821785D01*
X115860533Y-71821785D02*
X116003390Y-71869404D01*
X116003390Y-71869404D02*
X116574819Y-72440832D01*
X116574819Y-72440832D02*
X116574819Y-71821785D01*
X121654819Y-73345594D02*
X120654819Y-73345594D01*
X120654819Y-73345594D02*
X120654819Y-73107499D01*
X120654819Y-73107499D02*
X120702438Y-72964642D01*
X120702438Y-72964642D02*
X120797676Y-72869404D01*
X120797676Y-72869404D02*
X120892914Y-72821785D01*
X120892914Y-72821785D02*
X121083390Y-72774166D01*
X121083390Y-72774166D02*
X121226247Y-72774166D01*
X121226247Y-72774166D02*
X121416723Y-72821785D01*
X121416723Y-72821785D02*
X121511961Y-72869404D01*
X121511961Y-72869404D02*
X121607200Y-72964642D01*
X121607200Y-72964642D02*
X121654819Y-73107499D01*
X121654819Y-73107499D02*
X121654819Y-73345594D01*
X121654819Y-71821785D02*
X121654819Y-72393213D01*
X121654819Y-72107499D02*
X120654819Y-72107499D01*
X120654819Y-72107499D02*
X120797676Y-72202737D01*
X120797676Y-72202737D02*
X120892914Y-72297975D01*
X120892914Y-72297975D02*
X120940533Y-72393213D01*
D12*
X110130000Y-81017064D02*
X110130000Y-79562936D01*
X108310000Y-81017064D02*
X108310000Y-79562936D01*
X113390000Y-81017064D02*
X113390000Y-79562936D01*
X115210000Y-81017064D02*
X115210000Y-79562936D01*
X120290000Y-81017064D02*
X120290000Y-79562936D01*
X118470000Y-81017064D02*
X118470000Y-79562936D01*
X110355000Y-74207500D02*
X110355000Y-70147500D01*
X108085000Y-70147500D02*
X108085000Y-74207500D01*
X110355000Y-70147500D02*
X108085000Y-70147500D01*
X115435000Y-74207500D02*
X115435000Y-70147500D01*
X113165000Y-70147500D02*
X113165000Y-74207500D01*
X115435000Y-70147500D02*
X113165000Y-70147500D01*
X120515000Y-74207500D02*
X120515000Y-70147500D01*
X118245000Y-70147500D02*
X118245000Y-74207500D01*
X120515000Y-70147500D02*
X118245000Y-70147500D01*
%LPC*%
D13*
X111353800Y-113170200D03*
D14*
X113893800Y-113170200D03*
D13*
X116433800Y-113170200D03*
X105003800Y-65140200D03*
X105003800Y-67680200D03*
D14*
X105003800Y-70220200D03*
D13*
X105003800Y-72760200D03*
X105003800Y-75300200D03*
X105003800Y-77840200D03*
X105003800Y-80380200D03*
D14*
X105003800Y-82920200D03*
D13*
X105003800Y-85460200D03*
X105003800Y-88000200D03*
X105003800Y-90540200D03*
X105003800Y-93080200D03*
D14*
X105003800Y-95620200D03*
D13*
X105003800Y-98160200D03*
X105003800Y-100700200D03*
X105003800Y-103240200D03*
X105003800Y-105780200D03*
D14*
X105003800Y-108320200D03*
D13*
X105003800Y-110860200D03*
X105003800Y-113400200D03*
X122783800Y-113400200D03*
X122783800Y-110860200D03*
D14*
X122783800Y-108320200D03*
D13*
X122783800Y-105780200D03*
X122783800Y-103240200D03*
X122783800Y-100700200D03*
X122783800Y-98160200D03*
D14*
X122783800Y-95620200D03*
D13*
X122783800Y-93080200D03*
X122783800Y-90540200D03*
X122783800Y-88000200D03*
X122783800Y-85460200D03*
D14*
X122783800Y-82920200D03*
D13*
X122783800Y-80380200D03*
X122783800Y-77840200D03*
X122783800Y-75300200D03*
X122783800Y-72760200D03*
D14*
X122783800Y-70220200D03*
D13*
X122783800Y-67680200D03*
X122783800Y-65140200D03*
D15*
X111468800Y-68300200D03*
X116318800Y-68300200D03*
D16*
X116618800Y-65270200D03*
X111168800Y-65270200D03*
D17*
X109220000Y-78740000D03*
X109220000Y-81840000D03*
X114300000Y-81840000D03*
X114300000Y-78740000D03*
X119380000Y-78740000D03*
X119380000Y-81840000D03*
D18*
X118110000Y-123190000D03*
X115570000Y-123190000D03*
X113030000Y-123190000D03*
X110490000Y-123190000D03*
D19*
X109220000Y-74095000D03*
X109220000Y-71120000D03*
X114300000Y-74095000D03*
X114300000Y-71120000D03*
X119380000Y-74095000D03*
X119380000Y-71120000D03*
%LPD*%
M02*
