%TF.GenerationSoftware,KiCad,Pcbnew,8.0.1*%
%TF.CreationDate,2024-10-21T20:58:19+13:00*%
%TF.ProjectId,aurorawatchpcb,6175726f-7261-4776-9174-63687063622e,rev?*%
%TF.SameCoordinates,Original*%
%TF.FileFunction,Drillmap*%
%TF.FilePolarity,Positive*%
%FSLAX45Y45*%
G04 Gerber Fmt 4.5, Leading zero omitted, Abs format (unit mm)*
G04 Created by KiCad (PCBNEW 8.0.1) date 2024-10-21 20:58:19*
%MOMM*%
%LPD*%
G01*
G04 APERTURE LIST*
%ADD10C,0.050000*%
%ADD11C,0.200000*%
%ADD12C,0.100000*%
%ADD13C,0.102000*%
G04 APERTURE END LIST*
D10*
X9652000Y-6298775D02*
X13081000Y-6298775D01*
X9652000Y-12573000D02*
X9652000Y-6298775D01*
X13081000Y-12573000D02*
X9652000Y-12573000D01*
X13081000Y-6298775D02*
X13081000Y-12573000D01*
D11*
D12*
X10999000Y-12269000D02*
X11099000Y-12369000D01*
X11099000Y-12269000D02*
X10999000Y-12369000D01*
X11253000Y-12269000D02*
X11353000Y-12369000D01*
X11353000Y-12269000D02*
X11253000Y-12369000D01*
X11507000Y-12269000D02*
X11607000Y-12369000D01*
X11607000Y-12269000D02*
X11507000Y-12369000D01*
X11761000Y-12269000D02*
X11861000Y-12369000D01*
X11861000Y-12269000D02*
X11761000Y-12369000D01*
D13*
X10551380Y-6514020D02*
G75*
G02*
X10449380Y-6514020I-51000J0D01*
G01*
X10449380Y-6514020D02*
G75*
G02*
X10551380Y-6514020I51000J0D01*
G01*
X10551380Y-6768020D02*
G75*
G02*
X10449380Y-6768020I-51000J0D01*
G01*
X10449380Y-6768020D02*
G75*
G02*
X10551380Y-6768020I51000J0D01*
G01*
X10551380Y-7022020D02*
G75*
G02*
X10449380Y-7022020I-51000J0D01*
G01*
X10449380Y-7022020D02*
G75*
G02*
X10551380Y-7022020I51000J0D01*
G01*
X10551380Y-7276020D02*
G75*
G02*
X10449380Y-7276020I-51000J0D01*
G01*
X10449380Y-7276020D02*
G75*
G02*
X10551380Y-7276020I51000J0D01*
G01*
X10551380Y-7530020D02*
G75*
G02*
X10449380Y-7530020I-51000J0D01*
G01*
X10449380Y-7530020D02*
G75*
G02*
X10551380Y-7530020I51000J0D01*
G01*
X10551380Y-7784020D02*
G75*
G02*
X10449380Y-7784020I-51000J0D01*
G01*
X10449380Y-7784020D02*
G75*
G02*
X10551380Y-7784020I51000J0D01*
G01*
X10551380Y-8038020D02*
G75*
G02*
X10449380Y-8038020I-51000J0D01*
G01*
X10449380Y-8038020D02*
G75*
G02*
X10551380Y-8038020I51000J0D01*
G01*
X10551380Y-8292020D02*
G75*
G02*
X10449380Y-8292020I-51000J0D01*
G01*
X10449380Y-8292020D02*
G75*
G02*
X10551380Y-8292020I51000J0D01*
G01*
X10551380Y-8546020D02*
G75*
G02*
X10449380Y-8546020I-51000J0D01*
G01*
X10449380Y-8546020D02*
G75*
G02*
X10551380Y-8546020I51000J0D01*
G01*
X10551380Y-8800020D02*
G75*
G02*
X10449380Y-8800020I-51000J0D01*
G01*
X10449380Y-8800020D02*
G75*
G02*
X10551380Y-8800020I51000J0D01*
G01*
X10551380Y-9054020D02*
G75*
G02*
X10449380Y-9054020I-51000J0D01*
G01*
X10449380Y-9054020D02*
G75*
G02*
X10551380Y-9054020I51000J0D01*
G01*
X10551380Y-9308020D02*
G75*
G02*
X10449380Y-9308020I-51000J0D01*
G01*
X10449380Y-9308020D02*
G75*
G02*
X10551380Y-9308020I51000J0D01*
G01*
X10551380Y-9562020D02*
G75*
G02*
X10449380Y-9562020I-51000J0D01*
G01*
X10449380Y-9562020D02*
G75*
G02*
X10551380Y-9562020I51000J0D01*
G01*
X10551380Y-9816020D02*
G75*
G02*
X10449380Y-9816020I-51000J0D01*
G01*
X10449380Y-9816020D02*
G75*
G02*
X10551380Y-9816020I51000J0D01*
G01*
X10551380Y-10070020D02*
G75*
G02*
X10449380Y-10070020I-51000J0D01*
G01*
X10449380Y-10070020D02*
G75*
G02*
X10551380Y-10070020I51000J0D01*
G01*
X10551380Y-10324020D02*
G75*
G02*
X10449380Y-10324020I-51000J0D01*
G01*
X10449380Y-10324020D02*
G75*
G02*
X10551380Y-10324020I51000J0D01*
G01*
X10551380Y-10578020D02*
G75*
G02*
X10449380Y-10578020I-51000J0D01*
G01*
X10449380Y-10578020D02*
G75*
G02*
X10551380Y-10578020I51000J0D01*
G01*
X10551380Y-10832020D02*
G75*
G02*
X10449380Y-10832020I-51000J0D01*
G01*
X10449380Y-10832020D02*
G75*
G02*
X10551380Y-10832020I51000J0D01*
G01*
X10551380Y-11086020D02*
G75*
G02*
X10449380Y-11086020I-51000J0D01*
G01*
X10449380Y-11086020D02*
G75*
G02*
X10551380Y-11086020I51000J0D01*
G01*
X10551380Y-11340020D02*
G75*
G02*
X10449380Y-11340020I-51000J0D01*
G01*
X10449380Y-11340020D02*
G75*
G02*
X10551380Y-11340020I51000J0D01*
G01*
X11186380Y-11317020D02*
G75*
G02*
X11084380Y-11317020I-51000J0D01*
G01*
X11084380Y-11317020D02*
G75*
G02*
X11186380Y-11317020I51000J0D01*
G01*
X11440380Y-11317020D02*
G75*
G02*
X11338380Y-11317020I-51000J0D01*
G01*
X11338380Y-11317020D02*
G75*
G02*
X11440380Y-11317020I51000J0D01*
G01*
X11694380Y-11317020D02*
G75*
G02*
X11592380Y-11317020I-51000J0D01*
G01*
X11592380Y-11317020D02*
G75*
G02*
X11694380Y-11317020I51000J0D01*
G01*
X12329380Y-6514020D02*
G75*
G02*
X12227380Y-6514020I-51000J0D01*
G01*
X12227380Y-6514020D02*
G75*
G02*
X12329380Y-6514020I51000J0D01*
G01*
X12329380Y-6768020D02*
G75*
G02*
X12227380Y-6768020I-51000J0D01*
G01*
X12227380Y-6768020D02*
G75*
G02*
X12329380Y-6768020I51000J0D01*
G01*
X12329380Y-7022020D02*
G75*
G02*
X12227380Y-7022020I-51000J0D01*
G01*
X12227380Y-7022020D02*
G75*
G02*
X12329380Y-7022020I51000J0D01*
G01*
X12329380Y-7276020D02*
G75*
G02*
X12227380Y-7276020I-51000J0D01*
G01*
X12227380Y-7276020D02*
G75*
G02*
X12329380Y-7276020I51000J0D01*
G01*
X12329380Y-7530020D02*
G75*
G02*
X12227380Y-7530020I-51000J0D01*
G01*
X12227380Y-7530020D02*
G75*
G02*
X12329380Y-7530020I51000J0D01*
G01*
X12329380Y-7784020D02*
G75*
G02*
X12227380Y-7784020I-51000J0D01*
G01*
X12227380Y-7784020D02*
G75*
G02*
X12329380Y-7784020I51000J0D01*
G01*
X12329380Y-8038020D02*
G75*
G02*
X12227380Y-8038020I-51000J0D01*
G01*
X12227380Y-8038020D02*
G75*
G02*
X12329380Y-8038020I51000J0D01*
G01*
X12329380Y-8292020D02*
G75*
G02*
X12227380Y-8292020I-51000J0D01*
G01*
X12227380Y-8292020D02*
G75*
G02*
X12329380Y-8292020I51000J0D01*
G01*
X12329380Y-8546020D02*
G75*
G02*
X12227380Y-8546020I-51000J0D01*
G01*
X12227380Y-8546020D02*
G75*
G02*
X12329380Y-8546020I51000J0D01*
G01*
X12329380Y-8800020D02*
G75*
G02*
X12227380Y-8800020I-51000J0D01*
G01*
X12227380Y-8800020D02*
G75*
G02*
X12329380Y-8800020I51000J0D01*
G01*
X12329380Y-9054020D02*
G75*
G02*
X12227380Y-9054020I-51000J0D01*
G01*
X12227380Y-9054020D02*
G75*
G02*
X12329380Y-9054020I51000J0D01*
G01*
X12329380Y-9308020D02*
G75*
G02*
X12227380Y-9308020I-51000J0D01*
G01*
X12227380Y-9308020D02*
G75*
G02*
X12329380Y-9308020I51000J0D01*
G01*
X12329380Y-9562020D02*
G75*
G02*
X12227380Y-9562020I-51000J0D01*
G01*
X12227380Y-9562020D02*
G75*
G02*
X12329380Y-9562020I51000J0D01*
G01*
X12329380Y-9816020D02*
G75*
G02*
X12227380Y-9816020I-51000J0D01*
G01*
X12227380Y-9816020D02*
G75*
G02*
X12329380Y-9816020I51000J0D01*
G01*
X12329380Y-10070020D02*
G75*
G02*
X12227380Y-10070020I-51000J0D01*
G01*
X12227380Y-10070020D02*
G75*
G02*
X12329380Y-10070020I51000J0D01*
G01*
X12329380Y-10324020D02*
G75*
G02*
X12227380Y-10324020I-51000J0D01*
G01*
X12227380Y-10324020D02*
G75*
G02*
X12329380Y-10324020I51000J0D01*
G01*
X12329380Y-10578020D02*
G75*
G02*
X12227380Y-10578020I-51000J0D01*
G01*
X12227380Y-10578020D02*
G75*
G02*
X12329380Y-10578020I51000J0D01*
G01*
X12329380Y-10832020D02*
G75*
G02*
X12227380Y-10832020I-51000J0D01*
G01*
X12227380Y-10832020D02*
G75*
G02*
X12329380Y-10832020I51000J0D01*
G01*
X12329380Y-11086020D02*
G75*
G02*
X12227380Y-11086020I-51000J0D01*
G01*
X12227380Y-11086020D02*
G75*
G02*
X12329380Y-11086020I51000J0D01*
G01*
X12329380Y-11340020D02*
G75*
G02*
X12227380Y-11340020I-51000J0D01*
G01*
X12227380Y-11340020D02*
G75*
G02*
X12329380Y-11340020I51000J0D01*
G01*
D11*
X9910277Y-12886984D02*
X9910277Y-12686984D01*
X9910277Y-12686984D02*
X9957896Y-12686984D01*
X9957896Y-12686984D02*
X9986467Y-12696508D01*
X9986467Y-12696508D02*
X10005515Y-12715555D01*
X10005515Y-12715555D02*
X10015039Y-12734603D01*
X10015039Y-12734603D02*
X10024563Y-12772698D01*
X10024563Y-12772698D02*
X10024563Y-12801269D01*
X10024563Y-12801269D02*
X10015039Y-12839365D01*
X10015039Y-12839365D02*
X10005515Y-12858412D01*
X10005515Y-12858412D02*
X9986467Y-12877460D01*
X9986467Y-12877460D02*
X9957896Y-12886984D01*
X9957896Y-12886984D02*
X9910277Y-12886984D01*
X10110277Y-12886984D02*
X10110277Y-12753650D01*
X10110277Y-12791746D02*
X10119801Y-12772698D01*
X10119801Y-12772698D02*
X10129324Y-12763174D01*
X10129324Y-12763174D02*
X10148372Y-12753650D01*
X10148372Y-12753650D02*
X10167420Y-12753650D01*
X10234086Y-12886984D02*
X10234086Y-12753650D01*
X10234086Y-12686984D02*
X10224563Y-12696508D01*
X10224563Y-12696508D02*
X10234086Y-12706031D01*
X10234086Y-12706031D02*
X10243610Y-12696508D01*
X10243610Y-12696508D02*
X10234086Y-12686984D01*
X10234086Y-12686984D02*
X10234086Y-12706031D01*
X10357896Y-12886984D02*
X10338848Y-12877460D01*
X10338848Y-12877460D02*
X10329324Y-12858412D01*
X10329324Y-12858412D02*
X10329324Y-12686984D01*
X10462658Y-12886984D02*
X10443610Y-12877460D01*
X10443610Y-12877460D02*
X10434086Y-12858412D01*
X10434086Y-12858412D02*
X10434086Y-12686984D01*
X10691229Y-12886984D02*
X10691229Y-12686984D01*
X10691229Y-12686984D02*
X10757896Y-12829841D01*
X10757896Y-12829841D02*
X10824563Y-12686984D01*
X10824563Y-12686984D02*
X10824563Y-12886984D01*
X11005515Y-12886984D02*
X11005515Y-12782222D01*
X11005515Y-12782222D02*
X10995991Y-12763174D01*
X10995991Y-12763174D02*
X10976944Y-12753650D01*
X10976944Y-12753650D02*
X10938848Y-12753650D01*
X10938848Y-12753650D02*
X10919801Y-12763174D01*
X11005515Y-12877460D02*
X10986467Y-12886984D01*
X10986467Y-12886984D02*
X10938848Y-12886984D01*
X10938848Y-12886984D02*
X10919801Y-12877460D01*
X10919801Y-12877460D02*
X10910277Y-12858412D01*
X10910277Y-12858412D02*
X10910277Y-12839365D01*
X10910277Y-12839365D02*
X10919801Y-12820317D01*
X10919801Y-12820317D02*
X10938848Y-12810793D01*
X10938848Y-12810793D02*
X10986467Y-12810793D01*
X10986467Y-12810793D02*
X11005515Y-12801269D01*
X11100753Y-12753650D02*
X11100753Y-12953650D01*
X11100753Y-12763174D02*
X11119801Y-12753650D01*
X11119801Y-12753650D02*
X11157896Y-12753650D01*
X11157896Y-12753650D02*
X11176944Y-12763174D01*
X11176944Y-12763174D02*
X11186467Y-12772698D01*
X11186467Y-12772698D02*
X11195991Y-12791746D01*
X11195991Y-12791746D02*
X11195991Y-12848888D01*
X11195991Y-12848888D02*
X11186467Y-12867936D01*
X11186467Y-12867936D02*
X11176944Y-12877460D01*
X11176944Y-12877460D02*
X11157896Y-12886984D01*
X11157896Y-12886984D02*
X11119801Y-12886984D01*
X11119801Y-12886984D02*
X11100753Y-12877460D01*
X11281705Y-12867936D02*
X11291229Y-12877460D01*
X11291229Y-12877460D02*
X11281705Y-12886984D01*
X11281705Y-12886984D02*
X11272182Y-12877460D01*
X11272182Y-12877460D02*
X11281705Y-12867936D01*
X11281705Y-12867936D02*
X11281705Y-12886984D01*
X11281705Y-12763174D02*
X11291229Y-12772698D01*
X11291229Y-12772698D02*
X11281705Y-12782222D01*
X11281705Y-12782222D02*
X11272182Y-12772698D01*
X11272182Y-12772698D02*
X11281705Y-12763174D01*
X11281705Y-12763174D02*
X11281705Y-12782222D01*
D12*
X9549500Y-13165500D02*
X9649500Y-13265500D01*
X9649500Y-13165500D02*
X9549500Y-13265500D01*
D11*
X10015039Y-13306984D02*
X9900753Y-13306984D01*
X9957896Y-13306984D02*
X9957896Y-13106984D01*
X9957896Y-13106984D02*
X9938848Y-13135555D01*
X9938848Y-13135555D02*
X9919801Y-13154603D01*
X9919801Y-13154603D02*
X9900753Y-13164127D01*
X10100753Y-13287936D02*
X10110277Y-13297460D01*
X10110277Y-13297460D02*
X10100753Y-13306984D01*
X10100753Y-13306984D02*
X10091229Y-13297460D01*
X10091229Y-13297460D02*
X10100753Y-13287936D01*
X10100753Y-13287936D02*
X10100753Y-13306984D01*
X10234086Y-13106984D02*
X10253134Y-13106984D01*
X10253134Y-13106984D02*
X10272182Y-13116508D01*
X10272182Y-13116508D02*
X10281705Y-13126031D01*
X10281705Y-13126031D02*
X10291229Y-13145079D01*
X10291229Y-13145079D02*
X10300753Y-13183174D01*
X10300753Y-13183174D02*
X10300753Y-13230793D01*
X10300753Y-13230793D02*
X10291229Y-13268888D01*
X10291229Y-13268888D02*
X10281705Y-13287936D01*
X10281705Y-13287936D02*
X10272182Y-13297460D01*
X10272182Y-13297460D02*
X10253134Y-13306984D01*
X10253134Y-13306984D02*
X10234086Y-13306984D01*
X10234086Y-13306984D02*
X10215039Y-13297460D01*
X10215039Y-13297460D02*
X10205515Y-13287936D01*
X10205515Y-13287936D02*
X10195991Y-13268888D01*
X10195991Y-13268888D02*
X10186467Y-13230793D01*
X10186467Y-13230793D02*
X10186467Y-13183174D01*
X10186467Y-13183174D02*
X10195991Y-13145079D01*
X10195991Y-13145079D02*
X10205515Y-13126031D01*
X10205515Y-13126031D02*
X10215039Y-13116508D01*
X10215039Y-13116508D02*
X10234086Y-13106984D01*
X10424563Y-13106984D02*
X10443610Y-13106984D01*
X10443610Y-13106984D02*
X10462658Y-13116508D01*
X10462658Y-13116508D02*
X10472182Y-13126031D01*
X10472182Y-13126031D02*
X10481705Y-13145079D01*
X10481705Y-13145079D02*
X10491229Y-13183174D01*
X10491229Y-13183174D02*
X10491229Y-13230793D01*
X10491229Y-13230793D02*
X10481705Y-13268888D01*
X10481705Y-13268888D02*
X10472182Y-13287936D01*
X10472182Y-13287936D02*
X10462658Y-13297460D01*
X10462658Y-13297460D02*
X10443610Y-13306984D01*
X10443610Y-13306984D02*
X10424563Y-13306984D01*
X10424563Y-13306984D02*
X10405515Y-13297460D01*
X10405515Y-13297460D02*
X10395991Y-13287936D01*
X10395991Y-13287936D02*
X10386467Y-13268888D01*
X10386467Y-13268888D02*
X10376944Y-13230793D01*
X10376944Y-13230793D02*
X10376944Y-13183174D01*
X10376944Y-13183174D02*
X10386467Y-13145079D01*
X10386467Y-13145079D02*
X10395991Y-13126031D01*
X10395991Y-13126031D02*
X10405515Y-13116508D01*
X10405515Y-13116508D02*
X10424563Y-13106984D01*
X10615039Y-13106984D02*
X10634086Y-13106984D01*
X10634086Y-13106984D02*
X10653134Y-13116508D01*
X10653134Y-13116508D02*
X10662658Y-13126031D01*
X10662658Y-13126031D02*
X10672182Y-13145079D01*
X10672182Y-13145079D02*
X10681705Y-13183174D01*
X10681705Y-13183174D02*
X10681705Y-13230793D01*
X10681705Y-13230793D02*
X10672182Y-13268888D01*
X10672182Y-13268888D02*
X10662658Y-13287936D01*
X10662658Y-13287936D02*
X10653134Y-13297460D01*
X10653134Y-13297460D02*
X10634086Y-13306984D01*
X10634086Y-13306984D02*
X10615039Y-13306984D01*
X10615039Y-13306984D02*
X10595991Y-13297460D01*
X10595991Y-13297460D02*
X10586467Y-13287936D01*
X10586467Y-13287936D02*
X10576944Y-13268888D01*
X10576944Y-13268888D02*
X10567420Y-13230793D01*
X10567420Y-13230793D02*
X10567420Y-13183174D01*
X10567420Y-13183174D02*
X10576944Y-13145079D01*
X10576944Y-13145079D02*
X10586467Y-13126031D01*
X10586467Y-13126031D02*
X10595991Y-13116508D01*
X10595991Y-13116508D02*
X10615039Y-13106984D01*
X10767420Y-13306984D02*
X10767420Y-13173650D01*
X10767420Y-13192698D02*
X10776944Y-13183174D01*
X10776944Y-13183174D02*
X10795991Y-13173650D01*
X10795991Y-13173650D02*
X10824563Y-13173650D01*
X10824563Y-13173650D02*
X10843610Y-13183174D01*
X10843610Y-13183174D02*
X10853134Y-13202222D01*
X10853134Y-13202222D02*
X10853134Y-13306984D01*
X10853134Y-13202222D02*
X10862658Y-13183174D01*
X10862658Y-13183174D02*
X10881705Y-13173650D01*
X10881705Y-13173650D02*
X10910277Y-13173650D01*
X10910277Y-13173650D02*
X10929325Y-13183174D01*
X10929325Y-13183174D02*
X10938848Y-13202222D01*
X10938848Y-13202222D02*
X10938848Y-13306984D01*
X11034086Y-13306984D02*
X11034086Y-13173650D01*
X11034086Y-13192698D02*
X11043610Y-13183174D01*
X11043610Y-13183174D02*
X11062658Y-13173650D01*
X11062658Y-13173650D02*
X11091229Y-13173650D01*
X11091229Y-13173650D02*
X11110277Y-13183174D01*
X11110277Y-13183174D02*
X11119801Y-13202222D01*
X11119801Y-13202222D02*
X11119801Y-13306984D01*
X11119801Y-13202222D02*
X11129325Y-13183174D01*
X11129325Y-13183174D02*
X11148372Y-13173650D01*
X11148372Y-13173650D02*
X11176944Y-13173650D01*
X11176944Y-13173650D02*
X11195991Y-13183174D01*
X11195991Y-13183174D02*
X11205515Y-13202222D01*
X11205515Y-13202222D02*
X11205515Y-13306984D01*
X11595991Y-13097460D02*
X11424563Y-13354603D01*
X11853134Y-13106984D02*
X11872182Y-13106984D01*
X11872182Y-13106984D02*
X11891229Y-13116508D01*
X11891229Y-13116508D02*
X11900753Y-13126031D01*
X11900753Y-13126031D02*
X11910277Y-13145079D01*
X11910277Y-13145079D02*
X11919801Y-13183174D01*
X11919801Y-13183174D02*
X11919801Y-13230793D01*
X11919801Y-13230793D02*
X11910277Y-13268888D01*
X11910277Y-13268888D02*
X11900753Y-13287936D01*
X11900753Y-13287936D02*
X11891229Y-13297460D01*
X11891229Y-13297460D02*
X11872182Y-13306984D01*
X11872182Y-13306984D02*
X11853134Y-13306984D01*
X11853134Y-13306984D02*
X11834086Y-13297460D01*
X11834086Y-13297460D02*
X11824563Y-13287936D01*
X11824563Y-13287936D02*
X11815039Y-13268888D01*
X11815039Y-13268888D02*
X11805515Y-13230793D01*
X11805515Y-13230793D02*
X11805515Y-13183174D01*
X11805515Y-13183174D02*
X11815039Y-13145079D01*
X11815039Y-13145079D02*
X11824563Y-13126031D01*
X11824563Y-13126031D02*
X11834086Y-13116508D01*
X11834086Y-13116508D02*
X11853134Y-13106984D01*
X12005515Y-13287936D02*
X12015039Y-13297460D01*
X12015039Y-13297460D02*
X12005515Y-13306984D01*
X12005515Y-13306984D02*
X11995991Y-13297460D01*
X11995991Y-13297460D02*
X12005515Y-13287936D01*
X12005515Y-13287936D02*
X12005515Y-13306984D01*
X12138848Y-13106984D02*
X12157896Y-13106984D01*
X12157896Y-13106984D02*
X12176944Y-13116508D01*
X12176944Y-13116508D02*
X12186467Y-13126031D01*
X12186467Y-13126031D02*
X12195991Y-13145079D01*
X12195991Y-13145079D02*
X12205515Y-13183174D01*
X12205515Y-13183174D02*
X12205515Y-13230793D01*
X12205515Y-13230793D02*
X12195991Y-13268888D01*
X12195991Y-13268888D02*
X12186467Y-13287936D01*
X12186467Y-13287936D02*
X12176944Y-13297460D01*
X12176944Y-13297460D02*
X12157896Y-13306984D01*
X12157896Y-13306984D02*
X12138848Y-13306984D01*
X12138848Y-13306984D02*
X12119801Y-13297460D01*
X12119801Y-13297460D02*
X12110277Y-13287936D01*
X12110277Y-13287936D02*
X12100753Y-13268888D01*
X12100753Y-13268888D02*
X12091229Y-13230793D01*
X12091229Y-13230793D02*
X12091229Y-13183174D01*
X12091229Y-13183174D02*
X12100753Y-13145079D01*
X12100753Y-13145079D02*
X12110277Y-13126031D01*
X12110277Y-13126031D02*
X12119801Y-13116508D01*
X12119801Y-13116508D02*
X12138848Y-13106984D01*
X12272182Y-13106984D02*
X12395991Y-13106984D01*
X12395991Y-13106984D02*
X12329325Y-13183174D01*
X12329325Y-13183174D02*
X12357896Y-13183174D01*
X12357896Y-13183174D02*
X12376944Y-13192698D01*
X12376944Y-13192698D02*
X12386467Y-13202222D01*
X12386467Y-13202222D02*
X12395991Y-13221269D01*
X12395991Y-13221269D02*
X12395991Y-13268888D01*
X12395991Y-13268888D02*
X12386467Y-13287936D01*
X12386467Y-13287936D02*
X12376944Y-13297460D01*
X12376944Y-13297460D02*
X12357896Y-13306984D01*
X12357896Y-13306984D02*
X12300753Y-13306984D01*
X12300753Y-13306984D02*
X12281706Y-13297460D01*
X12281706Y-13297460D02*
X12272182Y-13287936D01*
X12491229Y-13306984D02*
X12529325Y-13306984D01*
X12529325Y-13306984D02*
X12548372Y-13297460D01*
X12548372Y-13297460D02*
X12557896Y-13287936D01*
X12557896Y-13287936D02*
X12576944Y-13259365D01*
X12576944Y-13259365D02*
X12586467Y-13221269D01*
X12586467Y-13221269D02*
X12586467Y-13145079D01*
X12586467Y-13145079D02*
X12576944Y-13126031D01*
X12576944Y-13126031D02*
X12567420Y-13116508D01*
X12567420Y-13116508D02*
X12548372Y-13106984D01*
X12548372Y-13106984D02*
X12510277Y-13106984D01*
X12510277Y-13106984D02*
X12491229Y-13116508D01*
X12491229Y-13116508D02*
X12481706Y-13126031D01*
X12481706Y-13126031D02*
X12472182Y-13145079D01*
X12472182Y-13145079D02*
X12472182Y-13192698D01*
X12472182Y-13192698D02*
X12481706Y-13211746D01*
X12481706Y-13211746D02*
X12491229Y-13221269D01*
X12491229Y-13221269D02*
X12510277Y-13230793D01*
X12510277Y-13230793D02*
X12548372Y-13230793D01*
X12548372Y-13230793D02*
X12567420Y-13221269D01*
X12567420Y-13221269D02*
X12576944Y-13211746D01*
X12576944Y-13211746D02*
X12586467Y-13192698D01*
X12757896Y-13173650D02*
X12757896Y-13306984D01*
X12710277Y-13097460D02*
X12662658Y-13240317D01*
X12662658Y-13240317D02*
X12786467Y-13240317D01*
X12853134Y-13106984D02*
X12853134Y-13145079D01*
X12929325Y-13106984D02*
X12929325Y-13145079D01*
X13224563Y-13383174D02*
X13215039Y-13373650D01*
X13215039Y-13373650D02*
X13195991Y-13345079D01*
X13195991Y-13345079D02*
X13186468Y-13326031D01*
X13186468Y-13326031D02*
X13176944Y-13297460D01*
X13176944Y-13297460D02*
X13167420Y-13249841D01*
X13167420Y-13249841D02*
X13167420Y-13211746D01*
X13167420Y-13211746D02*
X13176944Y-13164127D01*
X13176944Y-13164127D02*
X13186468Y-13135555D01*
X13186468Y-13135555D02*
X13195991Y-13116508D01*
X13195991Y-13116508D02*
X13215039Y-13087936D01*
X13215039Y-13087936D02*
X13224563Y-13078412D01*
X13386468Y-13173650D02*
X13386468Y-13306984D01*
X13338848Y-13097460D02*
X13291229Y-13240317D01*
X13291229Y-13240317D02*
X13415039Y-13240317D01*
X13643610Y-13306984D02*
X13643610Y-13106984D01*
X13729325Y-13306984D02*
X13729325Y-13202222D01*
X13729325Y-13202222D02*
X13719801Y-13183174D01*
X13719801Y-13183174D02*
X13700753Y-13173650D01*
X13700753Y-13173650D02*
X13672182Y-13173650D01*
X13672182Y-13173650D02*
X13653134Y-13183174D01*
X13653134Y-13183174D02*
X13643610Y-13192698D01*
X13853134Y-13306984D02*
X13834087Y-13297460D01*
X13834087Y-13297460D02*
X13824563Y-13287936D01*
X13824563Y-13287936D02*
X13815039Y-13268888D01*
X13815039Y-13268888D02*
X13815039Y-13211746D01*
X13815039Y-13211746D02*
X13824563Y-13192698D01*
X13824563Y-13192698D02*
X13834087Y-13183174D01*
X13834087Y-13183174D02*
X13853134Y-13173650D01*
X13853134Y-13173650D02*
X13881706Y-13173650D01*
X13881706Y-13173650D02*
X13900753Y-13183174D01*
X13900753Y-13183174D02*
X13910277Y-13192698D01*
X13910277Y-13192698D02*
X13919801Y-13211746D01*
X13919801Y-13211746D02*
X13919801Y-13268888D01*
X13919801Y-13268888D02*
X13910277Y-13287936D01*
X13910277Y-13287936D02*
X13900753Y-13297460D01*
X13900753Y-13297460D02*
X13881706Y-13306984D01*
X13881706Y-13306984D02*
X13853134Y-13306984D01*
X14034087Y-13306984D02*
X14015039Y-13297460D01*
X14015039Y-13297460D02*
X14005515Y-13278412D01*
X14005515Y-13278412D02*
X14005515Y-13106984D01*
X14186468Y-13297460D02*
X14167420Y-13306984D01*
X14167420Y-13306984D02*
X14129325Y-13306984D01*
X14129325Y-13306984D02*
X14110277Y-13297460D01*
X14110277Y-13297460D02*
X14100753Y-13278412D01*
X14100753Y-13278412D02*
X14100753Y-13202222D01*
X14100753Y-13202222D02*
X14110277Y-13183174D01*
X14110277Y-13183174D02*
X14129325Y-13173650D01*
X14129325Y-13173650D02*
X14167420Y-13173650D01*
X14167420Y-13173650D02*
X14186468Y-13183174D01*
X14186468Y-13183174D02*
X14195991Y-13202222D01*
X14195991Y-13202222D02*
X14195991Y-13221269D01*
X14195991Y-13221269D02*
X14100753Y-13240317D01*
X14272182Y-13297460D02*
X14291230Y-13306984D01*
X14291230Y-13306984D02*
X14329325Y-13306984D01*
X14329325Y-13306984D02*
X14348372Y-13297460D01*
X14348372Y-13297460D02*
X14357896Y-13278412D01*
X14357896Y-13278412D02*
X14357896Y-13268888D01*
X14357896Y-13268888D02*
X14348372Y-13249841D01*
X14348372Y-13249841D02*
X14329325Y-13240317D01*
X14329325Y-13240317D02*
X14300753Y-13240317D01*
X14300753Y-13240317D02*
X14281706Y-13230793D01*
X14281706Y-13230793D02*
X14272182Y-13211746D01*
X14272182Y-13211746D02*
X14272182Y-13202222D01*
X14272182Y-13202222D02*
X14281706Y-13183174D01*
X14281706Y-13183174D02*
X14300753Y-13173650D01*
X14300753Y-13173650D02*
X14329325Y-13173650D01*
X14329325Y-13173650D02*
X14348372Y-13183174D01*
X14424563Y-13383174D02*
X14434087Y-13373650D01*
X14434087Y-13373650D02*
X14453134Y-13345079D01*
X14453134Y-13345079D02*
X14462658Y-13326031D01*
X14462658Y-13326031D02*
X14472182Y-13297460D01*
X14472182Y-13297460D02*
X14481706Y-13249841D01*
X14481706Y-13249841D02*
X14481706Y-13211746D01*
X14481706Y-13211746D02*
X14472182Y-13164127D01*
X14472182Y-13164127D02*
X14462658Y-13135555D01*
X14462658Y-13135555D02*
X14453134Y-13116508D01*
X14453134Y-13116508D02*
X14434087Y-13087936D01*
X14434087Y-13087936D02*
X14424563Y-13078412D01*
D13*
X9649500Y-13479500D02*
G75*
G02*
X9547500Y-13479500I-51000J0D01*
G01*
X9547500Y-13479500D02*
G75*
G02*
X9649500Y-13479500I51000J0D01*
G01*
D11*
X10015039Y-13570984D02*
X9900753Y-13570984D01*
X9957896Y-13570984D02*
X9957896Y-13370984D01*
X9957896Y-13370984D02*
X9938848Y-13399555D01*
X9938848Y-13399555D02*
X9919801Y-13418603D01*
X9919801Y-13418603D02*
X9900753Y-13428127D01*
X10100753Y-13551936D02*
X10110277Y-13561460D01*
X10110277Y-13561460D02*
X10100753Y-13570984D01*
X10100753Y-13570984D02*
X10091229Y-13561460D01*
X10091229Y-13561460D02*
X10100753Y-13551936D01*
X10100753Y-13551936D02*
X10100753Y-13570984D01*
X10234086Y-13370984D02*
X10253134Y-13370984D01*
X10253134Y-13370984D02*
X10272182Y-13380508D01*
X10272182Y-13380508D02*
X10281705Y-13390031D01*
X10281705Y-13390031D02*
X10291229Y-13409079D01*
X10291229Y-13409079D02*
X10300753Y-13447174D01*
X10300753Y-13447174D02*
X10300753Y-13494793D01*
X10300753Y-13494793D02*
X10291229Y-13532888D01*
X10291229Y-13532888D02*
X10281705Y-13551936D01*
X10281705Y-13551936D02*
X10272182Y-13561460D01*
X10272182Y-13561460D02*
X10253134Y-13570984D01*
X10253134Y-13570984D02*
X10234086Y-13570984D01*
X10234086Y-13570984D02*
X10215039Y-13561460D01*
X10215039Y-13561460D02*
X10205515Y-13551936D01*
X10205515Y-13551936D02*
X10195991Y-13532888D01*
X10195991Y-13532888D02*
X10186467Y-13494793D01*
X10186467Y-13494793D02*
X10186467Y-13447174D01*
X10186467Y-13447174D02*
X10195991Y-13409079D01*
X10195991Y-13409079D02*
X10205515Y-13390031D01*
X10205515Y-13390031D02*
X10215039Y-13380508D01*
X10215039Y-13380508D02*
X10234086Y-13370984D01*
X10376944Y-13390031D02*
X10386467Y-13380508D01*
X10386467Y-13380508D02*
X10405515Y-13370984D01*
X10405515Y-13370984D02*
X10453134Y-13370984D01*
X10453134Y-13370984D02*
X10472182Y-13380508D01*
X10472182Y-13380508D02*
X10481705Y-13390031D01*
X10481705Y-13390031D02*
X10491229Y-13409079D01*
X10491229Y-13409079D02*
X10491229Y-13428127D01*
X10491229Y-13428127D02*
X10481705Y-13456698D01*
X10481705Y-13456698D02*
X10367420Y-13570984D01*
X10367420Y-13570984D02*
X10491229Y-13570984D01*
X10615039Y-13370984D02*
X10634086Y-13370984D01*
X10634086Y-13370984D02*
X10653134Y-13380508D01*
X10653134Y-13380508D02*
X10662658Y-13390031D01*
X10662658Y-13390031D02*
X10672182Y-13409079D01*
X10672182Y-13409079D02*
X10681705Y-13447174D01*
X10681705Y-13447174D02*
X10681705Y-13494793D01*
X10681705Y-13494793D02*
X10672182Y-13532888D01*
X10672182Y-13532888D02*
X10662658Y-13551936D01*
X10662658Y-13551936D02*
X10653134Y-13561460D01*
X10653134Y-13561460D02*
X10634086Y-13570984D01*
X10634086Y-13570984D02*
X10615039Y-13570984D01*
X10615039Y-13570984D02*
X10595991Y-13561460D01*
X10595991Y-13561460D02*
X10586467Y-13551936D01*
X10586467Y-13551936D02*
X10576944Y-13532888D01*
X10576944Y-13532888D02*
X10567420Y-13494793D01*
X10567420Y-13494793D02*
X10567420Y-13447174D01*
X10567420Y-13447174D02*
X10576944Y-13409079D01*
X10576944Y-13409079D02*
X10586467Y-13390031D01*
X10586467Y-13390031D02*
X10595991Y-13380508D01*
X10595991Y-13380508D02*
X10615039Y-13370984D01*
X10767420Y-13570984D02*
X10767420Y-13437650D01*
X10767420Y-13456698D02*
X10776944Y-13447174D01*
X10776944Y-13447174D02*
X10795991Y-13437650D01*
X10795991Y-13437650D02*
X10824563Y-13437650D01*
X10824563Y-13437650D02*
X10843610Y-13447174D01*
X10843610Y-13447174D02*
X10853134Y-13466222D01*
X10853134Y-13466222D02*
X10853134Y-13570984D01*
X10853134Y-13466222D02*
X10862658Y-13447174D01*
X10862658Y-13447174D02*
X10881705Y-13437650D01*
X10881705Y-13437650D02*
X10910277Y-13437650D01*
X10910277Y-13437650D02*
X10929325Y-13447174D01*
X10929325Y-13447174D02*
X10938848Y-13466222D01*
X10938848Y-13466222D02*
X10938848Y-13570984D01*
X11034086Y-13570984D02*
X11034086Y-13437650D01*
X11034086Y-13456698D02*
X11043610Y-13447174D01*
X11043610Y-13447174D02*
X11062658Y-13437650D01*
X11062658Y-13437650D02*
X11091229Y-13437650D01*
X11091229Y-13437650D02*
X11110277Y-13447174D01*
X11110277Y-13447174D02*
X11119801Y-13466222D01*
X11119801Y-13466222D02*
X11119801Y-13570984D01*
X11119801Y-13466222D02*
X11129325Y-13447174D01*
X11129325Y-13447174D02*
X11148372Y-13437650D01*
X11148372Y-13437650D02*
X11176944Y-13437650D01*
X11176944Y-13437650D02*
X11195991Y-13447174D01*
X11195991Y-13447174D02*
X11205515Y-13466222D01*
X11205515Y-13466222D02*
X11205515Y-13570984D01*
X11595991Y-13361460D02*
X11424563Y-13618603D01*
X11853134Y-13370984D02*
X11872182Y-13370984D01*
X11872182Y-13370984D02*
X11891229Y-13380508D01*
X11891229Y-13380508D02*
X11900753Y-13390031D01*
X11900753Y-13390031D02*
X11910277Y-13409079D01*
X11910277Y-13409079D02*
X11919801Y-13447174D01*
X11919801Y-13447174D02*
X11919801Y-13494793D01*
X11919801Y-13494793D02*
X11910277Y-13532888D01*
X11910277Y-13532888D02*
X11900753Y-13551936D01*
X11900753Y-13551936D02*
X11891229Y-13561460D01*
X11891229Y-13561460D02*
X11872182Y-13570984D01*
X11872182Y-13570984D02*
X11853134Y-13570984D01*
X11853134Y-13570984D02*
X11834086Y-13561460D01*
X11834086Y-13561460D02*
X11824563Y-13551936D01*
X11824563Y-13551936D02*
X11815039Y-13532888D01*
X11815039Y-13532888D02*
X11805515Y-13494793D01*
X11805515Y-13494793D02*
X11805515Y-13447174D01*
X11805515Y-13447174D02*
X11815039Y-13409079D01*
X11815039Y-13409079D02*
X11824563Y-13390031D01*
X11824563Y-13390031D02*
X11834086Y-13380508D01*
X11834086Y-13380508D02*
X11853134Y-13370984D01*
X12005515Y-13551936D02*
X12015039Y-13561460D01*
X12015039Y-13561460D02*
X12005515Y-13570984D01*
X12005515Y-13570984D02*
X11995991Y-13561460D01*
X11995991Y-13561460D02*
X12005515Y-13551936D01*
X12005515Y-13551936D02*
X12005515Y-13570984D01*
X12138848Y-13370984D02*
X12157896Y-13370984D01*
X12157896Y-13370984D02*
X12176944Y-13380508D01*
X12176944Y-13380508D02*
X12186467Y-13390031D01*
X12186467Y-13390031D02*
X12195991Y-13409079D01*
X12195991Y-13409079D02*
X12205515Y-13447174D01*
X12205515Y-13447174D02*
X12205515Y-13494793D01*
X12205515Y-13494793D02*
X12195991Y-13532888D01*
X12195991Y-13532888D02*
X12186467Y-13551936D01*
X12186467Y-13551936D02*
X12176944Y-13561460D01*
X12176944Y-13561460D02*
X12157896Y-13570984D01*
X12157896Y-13570984D02*
X12138848Y-13570984D01*
X12138848Y-13570984D02*
X12119801Y-13561460D01*
X12119801Y-13561460D02*
X12110277Y-13551936D01*
X12110277Y-13551936D02*
X12100753Y-13532888D01*
X12100753Y-13532888D02*
X12091229Y-13494793D01*
X12091229Y-13494793D02*
X12091229Y-13447174D01*
X12091229Y-13447174D02*
X12100753Y-13409079D01*
X12100753Y-13409079D02*
X12110277Y-13390031D01*
X12110277Y-13390031D02*
X12119801Y-13380508D01*
X12119801Y-13380508D02*
X12138848Y-13370984D01*
X12376944Y-13437650D02*
X12376944Y-13570984D01*
X12329325Y-13361460D02*
X12281706Y-13504317D01*
X12281706Y-13504317D02*
X12405515Y-13504317D01*
X12519801Y-13370984D02*
X12538848Y-13370984D01*
X12538848Y-13370984D02*
X12557896Y-13380508D01*
X12557896Y-13380508D02*
X12567420Y-13390031D01*
X12567420Y-13390031D02*
X12576944Y-13409079D01*
X12576944Y-13409079D02*
X12586467Y-13447174D01*
X12586467Y-13447174D02*
X12586467Y-13494793D01*
X12586467Y-13494793D02*
X12576944Y-13532888D01*
X12576944Y-13532888D02*
X12567420Y-13551936D01*
X12567420Y-13551936D02*
X12557896Y-13561460D01*
X12557896Y-13561460D02*
X12538848Y-13570984D01*
X12538848Y-13570984D02*
X12519801Y-13570984D01*
X12519801Y-13570984D02*
X12500753Y-13561460D01*
X12500753Y-13561460D02*
X12491229Y-13551936D01*
X12491229Y-13551936D02*
X12481706Y-13532888D01*
X12481706Y-13532888D02*
X12472182Y-13494793D01*
X12472182Y-13494793D02*
X12472182Y-13447174D01*
X12472182Y-13447174D02*
X12481706Y-13409079D01*
X12481706Y-13409079D02*
X12491229Y-13390031D01*
X12491229Y-13390031D02*
X12500753Y-13380508D01*
X12500753Y-13380508D02*
X12519801Y-13370984D01*
X12662658Y-13390031D02*
X12672182Y-13380508D01*
X12672182Y-13380508D02*
X12691229Y-13370984D01*
X12691229Y-13370984D02*
X12738848Y-13370984D01*
X12738848Y-13370984D02*
X12757896Y-13380508D01*
X12757896Y-13380508D02*
X12767420Y-13390031D01*
X12767420Y-13390031D02*
X12776944Y-13409079D01*
X12776944Y-13409079D02*
X12776944Y-13428127D01*
X12776944Y-13428127D02*
X12767420Y-13456698D01*
X12767420Y-13456698D02*
X12653134Y-13570984D01*
X12653134Y-13570984D02*
X12776944Y-13570984D01*
X12853134Y-13370984D02*
X12853134Y-13409079D01*
X12929325Y-13370984D02*
X12929325Y-13409079D01*
X13224563Y-13647174D02*
X13215039Y-13637650D01*
X13215039Y-13637650D02*
X13195991Y-13609079D01*
X13195991Y-13609079D02*
X13186468Y-13590031D01*
X13186468Y-13590031D02*
X13176944Y-13561460D01*
X13176944Y-13561460D02*
X13167420Y-13513841D01*
X13167420Y-13513841D02*
X13167420Y-13475746D01*
X13167420Y-13475746D02*
X13176944Y-13428127D01*
X13176944Y-13428127D02*
X13186468Y-13399555D01*
X13186468Y-13399555D02*
X13195991Y-13380508D01*
X13195991Y-13380508D02*
X13215039Y-13351936D01*
X13215039Y-13351936D02*
X13224563Y-13342412D01*
X13386468Y-13437650D02*
X13386468Y-13570984D01*
X13338848Y-13361460D02*
X13291229Y-13504317D01*
X13291229Y-13504317D02*
X13415039Y-13504317D01*
X13472182Y-13370984D02*
X13595991Y-13370984D01*
X13595991Y-13370984D02*
X13529325Y-13447174D01*
X13529325Y-13447174D02*
X13557896Y-13447174D01*
X13557896Y-13447174D02*
X13576944Y-13456698D01*
X13576944Y-13456698D02*
X13586468Y-13466222D01*
X13586468Y-13466222D02*
X13595991Y-13485269D01*
X13595991Y-13485269D02*
X13595991Y-13532888D01*
X13595991Y-13532888D02*
X13586468Y-13551936D01*
X13586468Y-13551936D02*
X13576944Y-13561460D01*
X13576944Y-13561460D02*
X13557896Y-13570984D01*
X13557896Y-13570984D02*
X13500753Y-13570984D01*
X13500753Y-13570984D02*
X13481706Y-13561460D01*
X13481706Y-13561460D02*
X13472182Y-13551936D01*
X13834087Y-13570984D02*
X13834087Y-13370984D01*
X13919801Y-13570984D02*
X13919801Y-13466222D01*
X13919801Y-13466222D02*
X13910277Y-13447174D01*
X13910277Y-13447174D02*
X13891230Y-13437650D01*
X13891230Y-13437650D02*
X13862658Y-13437650D01*
X13862658Y-13437650D02*
X13843610Y-13447174D01*
X13843610Y-13447174D02*
X13834087Y-13456698D01*
X14043610Y-13570984D02*
X14024563Y-13561460D01*
X14024563Y-13561460D02*
X14015039Y-13551936D01*
X14015039Y-13551936D02*
X14005515Y-13532888D01*
X14005515Y-13532888D02*
X14005515Y-13475746D01*
X14005515Y-13475746D02*
X14015039Y-13456698D01*
X14015039Y-13456698D02*
X14024563Y-13447174D01*
X14024563Y-13447174D02*
X14043610Y-13437650D01*
X14043610Y-13437650D02*
X14072182Y-13437650D01*
X14072182Y-13437650D02*
X14091230Y-13447174D01*
X14091230Y-13447174D02*
X14100753Y-13456698D01*
X14100753Y-13456698D02*
X14110277Y-13475746D01*
X14110277Y-13475746D02*
X14110277Y-13532888D01*
X14110277Y-13532888D02*
X14100753Y-13551936D01*
X14100753Y-13551936D02*
X14091230Y-13561460D01*
X14091230Y-13561460D02*
X14072182Y-13570984D01*
X14072182Y-13570984D02*
X14043610Y-13570984D01*
X14224563Y-13570984D02*
X14205515Y-13561460D01*
X14205515Y-13561460D02*
X14195991Y-13542412D01*
X14195991Y-13542412D02*
X14195991Y-13370984D01*
X14376944Y-13561460D02*
X14357896Y-13570984D01*
X14357896Y-13570984D02*
X14319801Y-13570984D01*
X14319801Y-13570984D02*
X14300753Y-13561460D01*
X14300753Y-13561460D02*
X14291230Y-13542412D01*
X14291230Y-13542412D02*
X14291230Y-13466222D01*
X14291230Y-13466222D02*
X14300753Y-13447174D01*
X14300753Y-13447174D02*
X14319801Y-13437650D01*
X14319801Y-13437650D02*
X14357896Y-13437650D01*
X14357896Y-13437650D02*
X14376944Y-13447174D01*
X14376944Y-13447174D02*
X14386468Y-13466222D01*
X14386468Y-13466222D02*
X14386468Y-13485269D01*
X14386468Y-13485269D02*
X14291230Y-13504317D01*
X14462658Y-13561460D02*
X14481706Y-13570984D01*
X14481706Y-13570984D02*
X14519801Y-13570984D01*
X14519801Y-13570984D02*
X14538849Y-13561460D01*
X14538849Y-13561460D02*
X14548372Y-13542412D01*
X14548372Y-13542412D02*
X14548372Y-13532888D01*
X14548372Y-13532888D02*
X14538849Y-13513841D01*
X14538849Y-13513841D02*
X14519801Y-13504317D01*
X14519801Y-13504317D02*
X14491230Y-13504317D01*
X14491230Y-13504317D02*
X14472182Y-13494793D01*
X14472182Y-13494793D02*
X14462658Y-13475746D01*
X14462658Y-13475746D02*
X14462658Y-13466222D01*
X14462658Y-13466222D02*
X14472182Y-13447174D01*
X14472182Y-13447174D02*
X14491230Y-13437650D01*
X14491230Y-13437650D02*
X14519801Y-13437650D01*
X14519801Y-13437650D02*
X14538849Y-13447174D01*
X14615039Y-13647174D02*
X14624563Y-13637650D01*
X14624563Y-13637650D02*
X14643611Y-13609079D01*
X14643611Y-13609079D02*
X14653134Y-13590031D01*
X14653134Y-13590031D02*
X14662658Y-13561460D01*
X14662658Y-13561460D02*
X14672182Y-13513841D01*
X14672182Y-13513841D02*
X14672182Y-13475746D01*
X14672182Y-13475746D02*
X14662658Y-13428127D01*
X14662658Y-13428127D02*
X14653134Y-13399555D01*
X14653134Y-13399555D02*
X14643611Y-13380508D01*
X14643611Y-13380508D02*
X14624563Y-13351936D01*
X14624563Y-13351936D02*
X14615039Y-13342412D01*
M02*
