G04 #@! TF.GenerationSoftware,KiCad,Pcbnew,8.0.1*
G04 #@! TF.CreationDate,2024-10-21T20:58:36+13:00*
G04 #@! TF.ProjectId,aurorawatchpcb,6175726f-7261-4776-9174-63687063622e,rev?*
G04 #@! TF.SameCoordinates,Original*
G04 #@! TF.FileFunction,Soldermask,Bot*
G04 #@! TF.FilePolarity,Negative*
%FSLAX46Y46*%
G04 Gerber Fmt 4.6, Leading zero omitted, Abs format (unit mm)*
G04 Created by KiCad (PCBNEW 8.0.1) date 2024-10-21 20:58:36*
%MOMM*%
%LPD*%
G01*
G04 APERTURE LIST*
%ADD10R,1.700000X3.500000*%
%ADD11O,1.700000X1.700000*%
%ADD12R,1.700000X1.700000*%
%ADD13R,3.500000X1.700000*%
%ADD14O,1.500000X1.500000*%
%ADD15O,1.800000X1.800000*%
%ADD16C,1.400000*%
G04 APERTURE END LIST*
D10*
X111353800Y-114070200D03*
D11*
X111353800Y-113170200D03*
D10*
X113893800Y-114070200D03*
D12*
X113893800Y-113170200D03*
D11*
X116433800Y-113170200D03*
D10*
X116433800Y-114070200D03*
D13*
X104103800Y-65140200D03*
D11*
X105003800Y-65140200D03*
X105003800Y-67680200D03*
D13*
X104103800Y-67680200D03*
D12*
X105003800Y-70220200D03*
D13*
X104103800Y-70220200D03*
D11*
X105003800Y-72760200D03*
D13*
X104103800Y-72760200D03*
X104103800Y-75300200D03*
D11*
X105003800Y-75300200D03*
X105003800Y-77840200D03*
D13*
X104103800Y-77840200D03*
D11*
X105003800Y-80380200D03*
D13*
X104103800Y-80380200D03*
D12*
X105003800Y-82920200D03*
D13*
X104103800Y-82920200D03*
X104103800Y-85460200D03*
D11*
X105003800Y-85460200D03*
D13*
X104103800Y-88000200D03*
D11*
X105003800Y-88000200D03*
X105003800Y-90540200D03*
D13*
X104103800Y-90540200D03*
X104103800Y-93080200D03*
D11*
X105003800Y-93080200D03*
D13*
X104103800Y-95620200D03*
D12*
X105003800Y-95620200D03*
D13*
X104103800Y-98160200D03*
D11*
X105003800Y-98160200D03*
X105003800Y-100700200D03*
D13*
X104103800Y-100700200D03*
D11*
X105003800Y-103240200D03*
D13*
X104103800Y-103240200D03*
X104103800Y-105780200D03*
D11*
X105003800Y-105780200D03*
D12*
X105003800Y-108320200D03*
D13*
X104103800Y-108320200D03*
D11*
X105003800Y-110860200D03*
D13*
X104103800Y-110860200D03*
D11*
X105003800Y-113400200D03*
D13*
X104103800Y-113400200D03*
D11*
X122783800Y-113400200D03*
D13*
X123683800Y-113400200D03*
X123683800Y-110860200D03*
D11*
X122783800Y-110860200D03*
D12*
X122783800Y-108320200D03*
D13*
X123683800Y-108320200D03*
D11*
X122783800Y-105780200D03*
D13*
X123683800Y-105780200D03*
D11*
X122783800Y-103240200D03*
D13*
X123683800Y-103240200D03*
X123683800Y-100700200D03*
D11*
X122783800Y-100700200D03*
X122783800Y-98160200D03*
D13*
X123683800Y-98160200D03*
X123683800Y-95620200D03*
D12*
X122783800Y-95620200D03*
D13*
X123683800Y-93080200D03*
D11*
X122783800Y-93080200D03*
X122783800Y-90540200D03*
D13*
X123683800Y-90540200D03*
X123683800Y-88000200D03*
D11*
X122783800Y-88000200D03*
X122783800Y-85460200D03*
D13*
X123683800Y-85460200D03*
X123683800Y-82920200D03*
D12*
X122783800Y-82920200D03*
D11*
X122783800Y-80380200D03*
D13*
X123683800Y-80380200D03*
X123683800Y-77840200D03*
D11*
X122783800Y-77840200D03*
D13*
X123683800Y-75300200D03*
D11*
X122783800Y-75300200D03*
D13*
X123683800Y-72760200D03*
D11*
X122783800Y-72760200D03*
D12*
X122783800Y-70220200D03*
D13*
X123683800Y-70220200D03*
X123683800Y-67680200D03*
D11*
X122783800Y-67680200D03*
D13*
X123683800Y-65140200D03*
D11*
X122783800Y-65140200D03*
D14*
X111468800Y-68300200D03*
X116318800Y-68300200D03*
D15*
X116618800Y-65270200D03*
X111168800Y-65270200D03*
D16*
X118110000Y-123190000D03*
X115570000Y-123190000D03*
X113030000Y-123190000D03*
X110490000Y-123190000D03*
M02*
