G04 #@! TF.GenerationSoftware,KiCad,Pcbnew,8.0.1*
G04 #@! TF.CreationDate,2024-10-21T20:58:36+13:00*
G04 #@! TF.ProjectId,aurorawatchpcb,6175726f-7261-4776-9174-63687063622e,rev?*
G04 #@! TF.SameCoordinates,Original*
G04 #@! TF.FileFunction,Copper,L2,Bot*
G04 #@! TF.FilePolarity,Positive*
%FSLAX46Y46*%
G04 Gerber Fmt 4.6, Leading zero omitted, Abs format (unit mm)*
G04 Created by KiCad (PCBNEW 8.0.1) date 2024-10-21 20:58:36*
%MOMM*%
%LPD*%
G01*
G04 APERTURE LIST*
G04 #@! TA.AperFunction,SMDPad,CuDef*
%ADD10R,1.700000X3.500000*%
G04 #@! TD*
G04 #@! TA.AperFunction,ComponentPad*
%ADD11O,1.700000X1.700000*%
G04 #@! TD*
G04 #@! TA.AperFunction,ComponentPad*
%ADD12R,1.700000X1.700000*%
G04 #@! TD*
G04 #@! TA.AperFunction,SMDPad,CuDef*
%ADD13R,3.500000X1.700000*%
G04 #@! TD*
G04 #@! TA.AperFunction,ComponentPad*
%ADD14C,1.400000*%
G04 #@! TD*
G04 #@! TA.AperFunction,Conductor*
%ADD15C,0.200000*%
G04 #@! TD*
G04 APERTURE END LIST*
D10*
X111353800Y-114070200D03*
D11*
X111353800Y-113170200D03*
D10*
X113893800Y-114070200D03*
D12*
X113893800Y-113170200D03*
D11*
X116433800Y-113170200D03*
D10*
X116433800Y-114070200D03*
D13*
X104103800Y-65140200D03*
D11*
X105003800Y-65140200D03*
X105003800Y-67680200D03*
D13*
X104103800Y-67680200D03*
D12*
X105003800Y-70220200D03*
D13*
X104103800Y-70220200D03*
D11*
X105003800Y-72760200D03*
D13*
X104103800Y-72760200D03*
X104103800Y-75300200D03*
D11*
X105003800Y-75300200D03*
X105003800Y-77840200D03*
D13*
X104103800Y-77840200D03*
D11*
X105003800Y-80380200D03*
D13*
X104103800Y-80380200D03*
D12*
X105003800Y-82920200D03*
D13*
X104103800Y-82920200D03*
X104103800Y-85460200D03*
D11*
X105003800Y-85460200D03*
D13*
X104103800Y-88000200D03*
D11*
X105003800Y-88000200D03*
X105003800Y-90540200D03*
D13*
X104103800Y-90540200D03*
X104103800Y-93080200D03*
D11*
X105003800Y-93080200D03*
D13*
X104103800Y-95620200D03*
D12*
X105003800Y-95620200D03*
D13*
X104103800Y-98160200D03*
D11*
X105003800Y-98160200D03*
X105003800Y-100700200D03*
D13*
X104103800Y-100700200D03*
D11*
X105003800Y-103240200D03*
D13*
X104103800Y-103240200D03*
X104103800Y-105780200D03*
D11*
X105003800Y-105780200D03*
D12*
X105003800Y-108320200D03*
D13*
X104103800Y-108320200D03*
D11*
X105003800Y-110860200D03*
D13*
X104103800Y-110860200D03*
D11*
X105003800Y-113400200D03*
D13*
X104103800Y-113400200D03*
D11*
X122783800Y-113400200D03*
D13*
X123683800Y-113400200D03*
X123683800Y-110860200D03*
D11*
X122783800Y-110860200D03*
D12*
X122783800Y-108320200D03*
D13*
X123683800Y-108320200D03*
D11*
X122783800Y-105780200D03*
D13*
X123683800Y-105780200D03*
D11*
X122783800Y-103240200D03*
D13*
X123683800Y-103240200D03*
X123683800Y-100700200D03*
D11*
X122783800Y-100700200D03*
X122783800Y-98160200D03*
D13*
X123683800Y-98160200D03*
X123683800Y-95620200D03*
D12*
X122783800Y-95620200D03*
D13*
X123683800Y-93080200D03*
D11*
X122783800Y-93080200D03*
X122783800Y-90540200D03*
D13*
X123683800Y-90540200D03*
X123683800Y-88000200D03*
D11*
X122783800Y-88000200D03*
X122783800Y-85460200D03*
D13*
X123683800Y-85460200D03*
X123683800Y-82920200D03*
D12*
X122783800Y-82920200D03*
D11*
X122783800Y-80380200D03*
D13*
X123683800Y-80380200D03*
X123683800Y-77840200D03*
D11*
X122783800Y-77840200D03*
D13*
X123683800Y-75300200D03*
D11*
X122783800Y-75300200D03*
D13*
X123683800Y-72760200D03*
D11*
X122783800Y-72760200D03*
D12*
X122783800Y-70220200D03*
D13*
X123683800Y-70220200D03*
X123683800Y-67680200D03*
D11*
X122783800Y-67680200D03*
D13*
X123683800Y-65140200D03*
D11*
X122783800Y-65140200D03*
D14*
X118110000Y-123190000D03*
X115570000Y-123190000D03*
X113030000Y-123190000D03*
X110490000Y-123190000D03*
D15*
X107950000Y-78246400D02*
X105003800Y-75300200D01*
X110490000Y-120650000D02*
X107950000Y-118110000D01*
X115265200Y-122885200D02*
X113030000Y-120650000D01*
X113030000Y-120650000D02*
X110490000Y-120650000D01*
X115265200Y-123190000D02*
X115265200Y-122885200D01*
X107950000Y-118110000D02*
X107950000Y-78246400D01*
G04 #@! TA.AperFunction,Conductor*
G36*
X130252539Y-63507939D02*
G01*
X130298294Y-63560743D01*
X130309500Y-63612254D01*
X130309500Y-125105500D01*
X130289815Y-125172539D01*
X130237011Y-125218294D01*
X130185500Y-125229500D01*
X97144500Y-125229500D01*
X97077461Y-125209815D01*
X97031706Y-125157011D01*
X97020500Y-125105500D01*
X97020500Y-114298070D01*
X101853300Y-114298070D01*
X101853301Y-114298076D01*
X101859708Y-114357683D01*
X101910002Y-114492528D01*
X101910006Y-114492535D01*
X101996252Y-114607744D01*
X101996255Y-114607747D01*
X102111464Y-114693993D01*
X102111471Y-114693997D01*
X102246317Y-114744291D01*
X102246316Y-114744291D01*
X102253244Y-114745035D01*
X102305927Y-114750700D01*
X104939411Y-114750699D01*
X104950219Y-114751171D01*
X105003799Y-114755859D01*
X105003800Y-114755859D01*
X105003801Y-114755859D01*
X105057380Y-114751171D01*
X105068188Y-114750699D01*
X105901671Y-114750699D01*
X105901672Y-114750699D01*
X105961283Y-114744291D01*
X106096131Y-114693996D01*
X106211346Y-114607746D01*
X106297596Y-114492531D01*
X106347891Y-114357683D01*
X106354300Y-114298073D01*
X106354299Y-113464583D01*
X106354771Y-113453776D01*
X106359459Y-113400200D01*
X106359459Y-113400199D01*
X106354771Y-113346621D01*
X106354299Y-113335813D01*
X106354299Y-112502329D01*
X106354298Y-112502323D01*
X106354297Y-112502316D01*
X106347891Y-112442717D01*
X106297596Y-112307869D01*
X106220221Y-112204509D01*
X106195804Y-112139048D01*
X106210655Y-112070775D01*
X106220216Y-112055896D01*
X106297596Y-111952531D01*
X106347891Y-111817683D01*
X106354300Y-111758073D01*
X106354299Y-110924583D01*
X106354771Y-110913776D01*
X106359459Y-110860200D01*
X106359459Y-110860199D01*
X106354771Y-110806621D01*
X106354299Y-110795813D01*
X106354299Y-109962329D01*
X106354298Y-109962323D01*
X106354297Y-109962316D01*
X106347891Y-109902717D01*
X106297596Y-109767869D01*
X106219909Y-109664093D01*
X106195492Y-109598630D01*
X106210343Y-109530357D01*
X106219910Y-109515471D01*
X106297152Y-109412289D01*
X106297154Y-109412286D01*
X106347396Y-109277579D01*
X106347398Y-109277572D01*
X106353799Y-109218044D01*
X106353800Y-109218027D01*
X106353800Y-108570200D01*
X105448360Y-108570200D01*
X105479045Y-108517053D01*
X105513800Y-108387343D01*
X105513800Y-108253057D01*
X105479045Y-108123347D01*
X105448360Y-108070200D01*
X106353800Y-108070200D01*
X106353800Y-107422372D01*
X106353799Y-107422355D01*
X106347398Y-107362827D01*
X106347396Y-107362820D01*
X106297154Y-107228113D01*
X106297152Y-107228110D01*
X106219910Y-107124929D01*
X106195492Y-107059465D01*
X106210343Y-106991192D01*
X106219905Y-106976311D01*
X106297596Y-106872531D01*
X106347891Y-106737683D01*
X106354300Y-106678073D01*
X106354299Y-105844583D01*
X106354771Y-105833776D01*
X106359459Y-105780200D01*
X106359459Y-105780199D01*
X106354771Y-105726621D01*
X106354299Y-105715813D01*
X106354299Y-104882329D01*
X106354298Y-104882323D01*
X106354297Y-104882316D01*
X106347891Y-104822717D01*
X106297596Y-104687869D01*
X106220221Y-104584509D01*
X106195804Y-104519048D01*
X106210655Y-104450775D01*
X106220216Y-104435896D01*
X106297596Y-104332531D01*
X106347891Y-104197683D01*
X106354300Y-104138073D01*
X106354299Y-103304583D01*
X106354771Y-103293776D01*
X106359459Y-103240200D01*
X106359459Y-103240199D01*
X106354771Y-103186621D01*
X106354299Y-103175813D01*
X106354299Y-102342329D01*
X106354298Y-102342323D01*
X106354297Y-102342316D01*
X106347891Y-102282717D01*
X106297596Y-102147869D01*
X106220221Y-102044509D01*
X106195804Y-101979048D01*
X106210655Y-101910775D01*
X106220216Y-101895896D01*
X106297596Y-101792531D01*
X106347891Y-101657683D01*
X106354300Y-101598073D01*
X106354299Y-100764583D01*
X106354771Y-100753776D01*
X106359459Y-100700200D01*
X106359459Y-100700199D01*
X106354771Y-100646621D01*
X106354299Y-100635813D01*
X106354299Y-99802329D01*
X106354298Y-99802323D01*
X106354297Y-99802316D01*
X106347891Y-99742717D01*
X106297596Y-99607869D01*
X106220221Y-99504509D01*
X106195804Y-99439048D01*
X106210655Y-99370775D01*
X106220216Y-99355896D01*
X106297596Y-99252531D01*
X106347891Y-99117683D01*
X106354300Y-99058073D01*
X106354299Y-98224583D01*
X106354771Y-98213776D01*
X106359459Y-98160200D01*
X106359459Y-98160199D01*
X106354771Y-98106621D01*
X106354299Y-98095813D01*
X106354299Y-97262329D01*
X106354298Y-97262323D01*
X106354297Y-97262316D01*
X106347891Y-97202717D01*
X106297596Y-97067869D01*
X106220221Y-96964509D01*
X106195804Y-96899048D01*
X106210655Y-96830775D01*
X106220216Y-96815896D01*
X106297596Y-96712531D01*
X106347891Y-96577683D01*
X106354300Y-96518073D01*
X106354299Y-94722328D01*
X106347891Y-94662717D01*
X106297596Y-94527869D01*
X106220221Y-94424509D01*
X106195804Y-94359048D01*
X106210655Y-94290775D01*
X106220216Y-94275896D01*
X106297596Y-94172531D01*
X106347891Y-94037683D01*
X106354300Y-93978073D01*
X106354299Y-93144583D01*
X106354771Y-93133776D01*
X106359459Y-93080200D01*
X106359459Y-93080199D01*
X106354771Y-93026621D01*
X106354299Y-93015813D01*
X106354299Y-92182329D01*
X106354298Y-92182323D01*
X106354297Y-92182316D01*
X106347891Y-92122717D01*
X106297596Y-91987869D01*
X106220221Y-91884509D01*
X106195804Y-91819048D01*
X106210655Y-91750775D01*
X106220216Y-91735896D01*
X106297596Y-91632531D01*
X106347891Y-91497683D01*
X106354300Y-91438073D01*
X106354299Y-90604583D01*
X106354771Y-90593776D01*
X106359459Y-90540200D01*
X106359459Y-90540199D01*
X106354771Y-90486621D01*
X106354299Y-90475813D01*
X106354299Y-89642329D01*
X106354298Y-89642323D01*
X106354297Y-89642316D01*
X106347891Y-89582717D01*
X106297596Y-89447869D01*
X106220221Y-89344509D01*
X106195804Y-89279048D01*
X106210655Y-89210775D01*
X106220216Y-89195896D01*
X106297596Y-89092531D01*
X106347891Y-88957683D01*
X106354300Y-88898073D01*
X106354299Y-88064583D01*
X106354771Y-88053776D01*
X106359459Y-88000200D01*
X106359459Y-88000199D01*
X106354771Y-87946621D01*
X106354299Y-87935813D01*
X106354299Y-87102329D01*
X106354298Y-87102323D01*
X106354297Y-87102316D01*
X106347891Y-87042717D01*
X106297596Y-86907869D01*
X106220221Y-86804509D01*
X106195804Y-86739048D01*
X106210655Y-86670775D01*
X106220216Y-86655896D01*
X106297596Y-86552531D01*
X106347891Y-86417683D01*
X106354300Y-86358073D01*
X106354299Y-85524583D01*
X106354771Y-85513776D01*
X106359459Y-85460200D01*
X106359459Y-85460199D01*
X106354771Y-85406621D01*
X106354299Y-85395813D01*
X106354299Y-84562329D01*
X106354298Y-84562323D01*
X106354297Y-84562316D01*
X106347891Y-84502717D01*
X106297596Y-84367869D01*
X106220221Y-84264509D01*
X106195804Y-84199048D01*
X106210655Y-84130775D01*
X106220216Y-84115896D01*
X106297596Y-84012531D01*
X106347891Y-83877683D01*
X106354300Y-83818073D01*
X106354299Y-82022328D01*
X106347891Y-81962717D01*
X106297596Y-81827869D01*
X106220221Y-81724509D01*
X106195804Y-81659048D01*
X106210655Y-81590775D01*
X106220216Y-81575896D01*
X106297596Y-81472531D01*
X106347891Y-81337683D01*
X106354300Y-81278073D01*
X106354299Y-80444583D01*
X106354771Y-80433776D01*
X106359459Y-80380200D01*
X106359459Y-80380199D01*
X106354771Y-80326621D01*
X106354299Y-80315813D01*
X106354299Y-79482329D01*
X106354298Y-79482323D01*
X106354297Y-79482316D01*
X106347891Y-79422717D01*
X106297596Y-79287869D01*
X106220221Y-79184509D01*
X106195804Y-79119048D01*
X106210655Y-79050775D01*
X106220216Y-79035896D01*
X106297596Y-78932531D01*
X106347891Y-78797683D01*
X106354300Y-78738073D01*
X106354299Y-77904583D01*
X106354771Y-77893776D01*
X106356179Y-77877684D01*
X106359459Y-77840200D01*
X106357022Y-77812354D01*
X106370787Y-77743857D01*
X106419401Y-77693673D01*
X106487429Y-77677738D01*
X106553273Y-77701111D01*
X106568231Y-77713866D01*
X107313181Y-78458816D01*
X107346666Y-78520139D01*
X107349500Y-78546497D01*
X107349500Y-118023330D01*
X107349499Y-118023348D01*
X107349499Y-118189054D01*
X107349498Y-118189054D01*
X107390423Y-118341785D01*
X107419358Y-118391900D01*
X107419359Y-118391904D01*
X107419360Y-118391904D01*
X107469479Y-118478714D01*
X107469481Y-118478717D01*
X107588349Y-118597585D01*
X107588355Y-118597590D01*
X110005139Y-121014374D01*
X110005149Y-121014385D01*
X110009479Y-121018715D01*
X110009480Y-121018716D01*
X110121284Y-121130520D01*
X110121286Y-121130521D01*
X110121290Y-121130524D01*
X110258209Y-121209573D01*
X110258216Y-121209577D01*
X110370019Y-121239534D01*
X110410942Y-121250500D01*
X110410943Y-121250500D01*
X112729903Y-121250500D01*
X112796942Y-121270185D01*
X112817584Y-121286819D01*
X113324256Y-121793492D01*
X113357741Y-121854815D01*
X113352757Y-121924507D01*
X113310885Y-121980440D01*
X113245421Y-122004857D01*
X113213793Y-122003062D01*
X113141243Y-121989500D01*
X112918757Y-121989500D01*
X112700060Y-122030382D01*
X112568864Y-122081207D01*
X112492601Y-122110752D01*
X112492595Y-122110754D01*
X112303439Y-122227874D01*
X112303437Y-122227876D01*
X112139020Y-122377761D01*
X112004943Y-122555308D01*
X112004938Y-122555316D01*
X111905775Y-122754461D01*
X111905769Y-122754476D01*
X111879266Y-122847627D01*
X111841987Y-122906721D01*
X111778677Y-122936278D01*
X111709438Y-122926916D01*
X111656251Y-122881606D01*
X111640734Y-122847627D01*
X111614230Y-122754476D01*
X111614229Y-122754472D01*
X111515188Y-122555572D01*
X111515061Y-122555316D01*
X111515056Y-122555308D01*
X111380979Y-122377761D01*
X111216562Y-122227876D01*
X111216560Y-122227874D01*
X111027404Y-122110754D01*
X111027398Y-122110752D01*
X110819940Y-122030382D01*
X110601243Y-121989500D01*
X110378757Y-121989500D01*
X110160060Y-122030382D01*
X110028864Y-122081207D01*
X109952601Y-122110752D01*
X109952595Y-122110754D01*
X109763439Y-122227874D01*
X109763437Y-122227876D01*
X109599020Y-122377761D01*
X109464943Y-122555308D01*
X109464938Y-122555316D01*
X109365775Y-122754461D01*
X109365769Y-122754476D01*
X109304885Y-122968462D01*
X109304884Y-122968464D01*
X109284357Y-123189999D01*
X109284357Y-123190000D01*
X109304884Y-123411535D01*
X109304885Y-123411537D01*
X109365769Y-123625523D01*
X109365775Y-123625538D01*
X109464938Y-123824683D01*
X109464943Y-123824691D01*
X109599020Y-124002238D01*
X109763437Y-124152123D01*
X109763439Y-124152125D01*
X109952595Y-124269245D01*
X109952596Y-124269245D01*
X109952599Y-124269247D01*
X110160060Y-124349618D01*
X110378757Y-124390500D01*
X110378759Y-124390500D01*
X110601241Y-124390500D01*
X110601243Y-124390500D01*
X110819940Y-124349618D01*
X111027401Y-124269247D01*
X111216562Y-124152124D01*
X111380981Y-124002236D01*
X111515058Y-123824689D01*
X111614229Y-123625528D01*
X111640734Y-123532371D01*
X111678013Y-123473278D01*
X111741323Y-123443721D01*
X111810562Y-123453083D01*
X111863749Y-123498393D01*
X111879266Y-123532372D01*
X111905769Y-123625523D01*
X111905775Y-123625538D01*
X112004938Y-123824683D01*
X112004943Y-123824691D01*
X112139020Y-124002238D01*
X112303437Y-124152123D01*
X112303439Y-124152125D01*
X112492595Y-124269245D01*
X112492596Y-124269245D01*
X112492599Y-124269247D01*
X112700060Y-124349618D01*
X112918757Y-124390500D01*
X112918759Y-124390500D01*
X113141241Y-124390500D01*
X113141243Y-124390500D01*
X113359940Y-124349618D01*
X113567401Y-124269247D01*
X113756562Y-124152124D01*
X113920981Y-124002236D01*
X114055058Y-123824689D01*
X114154229Y-123625528D01*
X114180734Y-123532371D01*
X114218013Y-123473278D01*
X114281323Y-123443721D01*
X114350562Y-123453083D01*
X114403749Y-123498393D01*
X114419266Y-123532372D01*
X114445769Y-123625523D01*
X114445775Y-123625538D01*
X114544938Y-123824683D01*
X114544943Y-123824691D01*
X114679020Y-124002238D01*
X114843437Y-124152123D01*
X114843439Y-124152125D01*
X115032595Y-124269245D01*
X115032596Y-124269245D01*
X115032599Y-124269247D01*
X115240060Y-124349618D01*
X115458757Y-124390500D01*
X115458759Y-124390500D01*
X115681241Y-124390500D01*
X115681243Y-124390500D01*
X115899940Y-124349618D01*
X116107401Y-124269247D01*
X116296562Y-124152124D01*
X116460981Y-124002236D01*
X116595058Y-123824689D01*
X116694229Y-123625528D01*
X116720995Y-123531455D01*
X116758272Y-123472367D01*
X116821581Y-123442809D01*
X116890821Y-123452171D01*
X116944007Y-123497480D01*
X116959525Y-123531460D01*
X116986236Y-123625342D01*
X116986239Y-123625348D01*
X117085369Y-123824428D01*
X117101137Y-123845308D01*
X117101138Y-123845308D01*
X117627037Y-123319409D01*
X117644075Y-123382993D01*
X117709901Y-123497007D01*
X117802993Y-123590099D01*
X117917007Y-123655925D01*
X117980590Y-123672962D01*
X117456672Y-124196879D01*
X117456672Y-124196880D01*
X117572821Y-124268797D01*
X117572822Y-124268798D01*
X117780195Y-124349134D01*
X117998807Y-124390000D01*
X118221193Y-124390000D01*
X118439809Y-124349133D01*
X118647168Y-124268801D01*
X118647181Y-124268795D01*
X118763326Y-124196879D01*
X118239410Y-123672962D01*
X118302993Y-123655925D01*
X118417007Y-123590099D01*
X118510099Y-123497007D01*
X118575925Y-123382993D01*
X118592962Y-123319409D01*
X119118861Y-123845308D01*
X119134631Y-123824425D01*
X119134633Y-123824422D01*
X119233759Y-123625350D01*
X119294621Y-123411439D01*
X119315141Y-123190000D01*
X119315141Y-123189999D01*
X119294621Y-122968560D01*
X119233759Y-122754649D01*
X119134635Y-122555580D01*
X119134630Y-122555572D01*
X119118860Y-122534690D01*
X118592962Y-123060589D01*
X118575925Y-122997007D01*
X118510099Y-122882993D01*
X118417007Y-122789901D01*
X118302993Y-122724075D01*
X118239409Y-122707037D01*
X118763327Y-122183119D01*
X118647178Y-122111202D01*
X118647177Y-122111201D01*
X118439804Y-122030865D01*
X118221193Y-121990000D01*
X117998807Y-121990000D01*
X117780195Y-122030865D01*
X117572824Y-122111200D01*
X117572823Y-122111201D01*
X117456671Y-122183119D01*
X117980590Y-122707037D01*
X117917007Y-122724075D01*
X117802993Y-122789901D01*
X117709901Y-122882993D01*
X117644075Y-122997007D01*
X117627037Y-123060590D01*
X117101138Y-122534691D01*
X117101137Y-122534691D01*
X117085368Y-122555574D01*
X116986239Y-122754651D01*
X116986237Y-122754655D01*
X116959525Y-122848540D01*
X116922246Y-122907633D01*
X116858936Y-122937190D01*
X116789697Y-122927828D01*
X116736510Y-122882518D01*
X116720994Y-122848541D01*
X116694229Y-122754472D01*
X116595188Y-122555572D01*
X116595061Y-122555316D01*
X116595056Y-122555308D01*
X116460979Y-122377761D01*
X116296562Y-122227876D01*
X116296560Y-122227874D01*
X116107404Y-122110754D01*
X116107398Y-122110752D01*
X115899940Y-122030382D01*
X115681243Y-121989500D01*
X115458757Y-121989500D01*
X115388734Y-122002589D01*
X115320783Y-122015291D01*
X115251268Y-122008259D01*
X115210318Y-121981083D01*
X113517590Y-120288355D01*
X113517588Y-120288352D01*
X113398717Y-120169481D01*
X113398716Y-120169480D01*
X113311904Y-120119360D01*
X113311904Y-120119359D01*
X113311900Y-120119358D01*
X113261785Y-120090423D01*
X113109057Y-120049499D01*
X112950943Y-120049499D01*
X112943347Y-120049499D01*
X112943331Y-120049500D01*
X110790097Y-120049500D01*
X110723058Y-120029815D01*
X110702416Y-120013181D01*
X108586819Y-117897584D01*
X108553334Y-117836261D01*
X108550500Y-117809903D01*
X108550500Y-113170201D01*
X109998141Y-113170201D01*
X110002828Y-113223774D01*
X110003300Y-113234581D01*
X110003300Y-115868070D01*
X110003301Y-115868076D01*
X110009708Y-115927683D01*
X110060002Y-116062528D01*
X110060006Y-116062535D01*
X110146252Y-116177744D01*
X110146255Y-116177747D01*
X110261464Y-116263993D01*
X110261471Y-116263997D01*
X110396317Y-116314291D01*
X110396316Y-116314291D01*
X110403244Y-116315035D01*
X110455927Y-116320700D01*
X112251672Y-116320699D01*
X112311283Y-116314291D01*
X112446131Y-116263996D01*
X112549490Y-116186621D01*
X112614952Y-116162204D01*
X112683225Y-116177055D01*
X112698103Y-116186616D01*
X112801465Y-116263993D01*
X112801468Y-116263995D01*
X112801471Y-116263997D01*
X112936317Y-116314291D01*
X112936316Y-116314291D01*
X112943244Y-116315035D01*
X112995927Y-116320700D01*
X114791672Y-116320699D01*
X114851283Y-116314291D01*
X114986131Y-116263996D01*
X115089490Y-116186621D01*
X115154952Y-116162204D01*
X115223225Y-116177055D01*
X115238103Y-116186616D01*
X115341465Y-116263993D01*
X115341468Y-116263995D01*
X115341471Y-116263997D01*
X115476317Y-116314291D01*
X115476316Y-116314291D01*
X115483244Y-116315035D01*
X115535927Y-116320700D01*
X117331672Y-116320699D01*
X117391283Y-116314291D01*
X117526131Y-116263996D01*
X117641346Y-116177746D01*
X117727596Y-116062531D01*
X117777891Y-115927683D01*
X117784300Y-115868073D01*
X117784299Y-113400202D01*
X121428141Y-113400202D01*
X121432828Y-113453776D01*
X121433300Y-113464583D01*
X121433300Y-114298070D01*
X121433301Y-114298076D01*
X121439708Y-114357683D01*
X121490002Y-114492528D01*
X121490006Y-114492535D01*
X121576252Y-114607744D01*
X121576255Y-114607747D01*
X121691464Y-114693993D01*
X121691471Y-114693997D01*
X121826317Y-114744291D01*
X121826316Y-114744291D01*
X121833244Y-114745035D01*
X121885927Y-114750700D01*
X122719416Y-114750699D01*
X122730225Y-114751171D01*
X122783800Y-114755859D01*
X122837375Y-114751171D01*
X122848184Y-114750699D01*
X125481671Y-114750699D01*
X125481672Y-114750699D01*
X125541283Y-114744291D01*
X125676131Y-114693996D01*
X125791346Y-114607746D01*
X125877596Y-114492531D01*
X125927891Y-114357683D01*
X125934300Y-114298073D01*
X125934299Y-112502328D01*
X125927891Y-112442717D01*
X125877596Y-112307869D01*
X125800221Y-112204509D01*
X125775804Y-112139048D01*
X125790655Y-112070775D01*
X125800216Y-112055896D01*
X125877596Y-111952531D01*
X125927891Y-111817683D01*
X125934300Y-111758073D01*
X125934299Y-109962328D01*
X125927891Y-109902717D01*
X125877596Y-109767869D01*
X125799909Y-109664093D01*
X125775492Y-109598630D01*
X125790343Y-109530357D01*
X125799910Y-109515471D01*
X125877152Y-109412289D01*
X125877154Y-109412286D01*
X125927396Y-109277579D01*
X125927398Y-109277572D01*
X125933799Y-109218044D01*
X125933800Y-109218027D01*
X125933800Y-108570200D01*
X123228360Y-108570200D01*
X123259045Y-108517053D01*
X123293800Y-108387343D01*
X123293800Y-108253057D01*
X123259045Y-108123347D01*
X123228360Y-108070200D01*
X125933800Y-108070200D01*
X125933800Y-107422372D01*
X125933799Y-107422355D01*
X125927398Y-107362827D01*
X125927396Y-107362820D01*
X125877154Y-107228113D01*
X125877152Y-107228110D01*
X125799910Y-107124929D01*
X125775492Y-107059465D01*
X125790343Y-106991192D01*
X125799905Y-106976311D01*
X125877596Y-106872531D01*
X125927891Y-106737683D01*
X125934300Y-106678073D01*
X125934299Y-104882328D01*
X125927891Y-104822717D01*
X125877596Y-104687869D01*
X125800221Y-104584509D01*
X125775804Y-104519048D01*
X125790655Y-104450775D01*
X125800216Y-104435896D01*
X125877596Y-104332531D01*
X125927891Y-104197683D01*
X125934300Y-104138073D01*
X125934299Y-102342328D01*
X125927891Y-102282717D01*
X125877596Y-102147869D01*
X125800221Y-102044509D01*
X125775804Y-101979048D01*
X125790655Y-101910775D01*
X125800216Y-101895896D01*
X125877596Y-101792531D01*
X125927891Y-101657683D01*
X125934300Y-101598073D01*
X125934299Y-99802328D01*
X125927891Y-99742717D01*
X125877596Y-99607869D01*
X125800221Y-99504509D01*
X125775804Y-99439048D01*
X125790655Y-99370775D01*
X125800216Y-99355896D01*
X125877596Y-99252531D01*
X125927891Y-99117683D01*
X125934300Y-99058073D01*
X125934299Y-97262328D01*
X125927891Y-97202717D01*
X125877596Y-97067869D01*
X125800221Y-96964509D01*
X125775804Y-96899048D01*
X125790655Y-96830775D01*
X125800216Y-96815896D01*
X125877596Y-96712531D01*
X125927891Y-96577683D01*
X125934300Y-96518073D01*
X125934299Y-94722328D01*
X125927891Y-94662717D01*
X125877596Y-94527869D01*
X125800221Y-94424509D01*
X125775804Y-94359048D01*
X125790655Y-94290775D01*
X125800216Y-94275896D01*
X125877596Y-94172531D01*
X125927891Y-94037683D01*
X125934300Y-93978073D01*
X125934299Y-92182328D01*
X125927891Y-92122717D01*
X125877596Y-91987869D01*
X125800221Y-91884509D01*
X125775804Y-91819048D01*
X125790655Y-91750775D01*
X125800216Y-91735896D01*
X125877596Y-91632531D01*
X125927891Y-91497683D01*
X125934300Y-91438073D01*
X125934299Y-89642328D01*
X125927891Y-89582717D01*
X125877596Y-89447869D01*
X125800221Y-89344509D01*
X125775804Y-89279048D01*
X125790655Y-89210775D01*
X125800216Y-89195896D01*
X125877596Y-89092531D01*
X125927891Y-88957683D01*
X125934300Y-88898073D01*
X125934299Y-87102328D01*
X125927891Y-87042717D01*
X125877596Y-86907869D01*
X125800221Y-86804509D01*
X125775804Y-86739048D01*
X125790655Y-86670775D01*
X125800216Y-86655896D01*
X125877596Y-86552531D01*
X125927891Y-86417683D01*
X125934300Y-86358073D01*
X125934299Y-84562328D01*
X125927891Y-84502717D01*
X125877596Y-84367869D01*
X125799909Y-84264093D01*
X125775492Y-84198630D01*
X125790343Y-84130357D01*
X125799910Y-84115471D01*
X125877152Y-84012289D01*
X125877154Y-84012286D01*
X125927396Y-83877579D01*
X125927398Y-83877572D01*
X125933799Y-83818044D01*
X125933800Y-83818027D01*
X125933800Y-83170200D01*
X123228360Y-83170200D01*
X123259045Y-83117053D01*
X123293800Y-82987343D01*
X123293800Y-82853057D01*
X123259045Y-82723347D01*
X123228360Y-82670200D01*
X125933800Y-82670200D01*
X125933800Y-82022372D01*
X125933799Y-82022355D01*
X125927398Y-81962827D01*
X125927396Y-81962820D01*
X125877154Y-81828113D01*
X125877152Y-81828110D01*
X125799910Y-81724929D01*
X125775492Y-81659465D01*
X125790343Y-81591192D01*
X125799905Y-81576311D01*
X125877596Y-81472531D01*
X125927891Y-81337683D01*
X125934300Y-81278073D01*
X125934299Y-79482328D01*
X125927891Y-79422717D01*
X125877596Y-79287869D01*
X125800221Y-79184509D01*
X125775804Y-79119048D01*
X125790655Y-79050775D01*
X125800216Y-79035896D01*
X125877596Y-78932531D01*
X125927891Y-78797683D01*
X125934300Y-78738073D01*
X125934299Y-76942328D01*
X125927891Y-76882717D01*
X125877596Y-76747869D01*
X125800221Y-76644509D01*
X125775804Y-76579048D01*
X125790655Y-76510775D01*
X125800216Y-76495896D01*
X125877596Y-76392531D01*
X125927891Y-76257683D01*
X125934300Y-76198073D01*
X125934299Y-74402328D01*
X125927891Y-74342717D01*
X125877596Y-74207869D01*
X125800221Y-74104509D01*
X125775804Y-74039048D01*
X125790655Y-73970775D01*
X125800216Y-73955896D01*
X125877596Y-73852531D01*
X125927891Y-73717683D01*
X125934300Y-73658073D01*
X125934299Y-71862328D01*
X125927891Y-71802717D01*
X125877596Y-71667869D01*
X125799909Y-71564093D01*
X125775492Y-71498630D01*
X125790343Y-71430357D01*
X125799910Y-71415471D01*
X125877152Y-71312289D01*
X125877154Y-71312286D01*
X125927396Y-71177579D01*
X125927398Y-71177572D01*
X125933799Y-71118044D01*
X125933800Y-71118027D01*
X125933800Y-70470200D01*
X123228360Y-70470200D01*
X123259045Y-70417053D01*
X123293800Y-70287343D01*
X123293800Y-70153057D01*
X123259045Y-70023347D01*
X123228360Y-69970200D01*
X125933800Y-69970200D01*
X125933800Y-69322372D01*
X125933799Y-69322355D01*
X125927398Y-69262827D01*
X125927396Y-69262820D01*
X125877154Y-69128113D01*
X125877152Y-69128110D01*
X125799910Y-69024929D01*
X125775492Y-68959465D01*
X125790343Y-68891192D01*
X125799905Y-68876311D01*
X125877596Y-68772531D01*
X125927891Y-68637683D01*
X125934300Y-68578073D01*
X125934299Y-66782328D01*
X125927891Y-66722717D01*
X125877596Y-66587869D01*
X125800221Y-66484509D01*
X125775804Y-66419048D01*
X125790655Y-66350775D01*
X125800216Y-66335896D01*
X125877596Y-66232531D01*
X125927891Y-66097683D01*
X125934300Y-66038073D01*
X125934299Y-64242328D01*
X125927891Y-64182717D01*
X125894701Y-64093731D01*
X125877597Y-64047871D01*
X125877593Y-64047864D01*
X125791347Y-63932655D01*
X125791344Y-63932652D01*
X125676135Y-63846406D01*
X125676128Y-63846402D01*
X125541282Y-63796108D01*
X125541283Y-63796108D01*
X125481683Y-63789701D01*
X125481681Y-63789700D01*
X125481673Y-63789700D01*
X125481665Y-63789700D01*
X122848185Y-63789700D01*
X122837378Y-63789228D01*
X122783801Y-63784541D01*
X122783797Y-63784541D01*
X122730219Y-63789228D01*
X122719413Y-63789700D01*
X121885929Y-63789700D01*
X121885923Y-63789701D01*
X121826316Y-63796108D01*
X121691471Y-63846402D01*
X121691464Y-63846406D01*
X121576255Y-63932652D01*
X121576252Y-63932655D01*
X121490006Y-64047864D01*
X121490002Y-64047871D01*
X121439708Y-64182717D01*
X121433949Y-64236287D01*
X121433301Y-64242323D01*
X121433300Y-64242335D01*
X121433300Y-65075816D01*
X121432828Y-65086623D01*
X121428141Y-65140197D01*
X121428141Y-65140202D01*
X121432828Y-65193776D01*
X121433300Y-65204583D01*
X121433300Y-66038070D01*
X121433301Y-66038076D01*
X121439708Y-66097683D01*
X121490002Y-66232528D01*
X121490003Y-66232530D01*
X121567378Y-66335889D01*
X121591795Y-66401353D01*
X121576944Y-66469626D01*
X121567378Y-66484511D01*
X121490003Y-66587869D01*
X121490002Y-66587871D01*
X121439708Y-66722717D01*
X121433301Y-66782316D01*
X121433301Y-66782323D01*
X121433300Y-66782335D01*
X121433300Y-67615816D01*
X121432828Y-67626623D01*
X121428141Y-67680197D01*
X121428141Y-67680202D01*
X121432828Y-67733776D01*
X121433300Y-67744583D01*
X121433300Y-68578070D01*
X121433301Y-68578076D01*
X121439708Y-68637683D01*
X121490002Y-68772528D01*
X121490006Y-68772535D01*
X121567689Y-68876305D01*
X121592107Y-68941769D01*
X121577256Y-69010042D01*
X121567690Y-69024927D01*
X121490447Y-69128110D01*
X121490445Y-69128113D01*
X121440203Y-69262820D01*
X121440201Y-69262827D01*
X121433800Y-69322355D01*
X121433800Y-69970200D01*
X122339240Y-69970200D01*
X122308555Y-70023347D01*
X122273800Y-70153057D01*
X122273800Y-70287343D01*
X122308555Y-70417053D01*
X122339240Y-70470200D01*
X121433800Y-70470200D01*
X121433800Y-71118044D01*
X121440201Y-71177572D01*
X121440203Y-71177579D01*
X121490445Y-71312286D01*
X121490446Y-71312288D01*
X121567690Y-71415472D01*
X121592107Y-71480936D01*
X121577256Y-71549209D01*
X121567690Y-71564094D01*
X121490004Y-71667869D01*
X121490002Y-71667871D01*
X121439708Y-71802717D01*
X121433301Y-71862316D01*
X121433301Y-71862323D01*
X121433300Y-71862335D01*
X121433300Y-72695816D01*
X121432828Y-72706623D01*
X121428141Y-72760197D01*
X121428141Y-72760202D01*
X121432828Y-72813776D01*
X121433300Y-72824583D01*
X121433300Y-73658070D01*
X121433301Y-73658076D01*
X121439708Y-73717683D01*
X121490002Y-73852528D01*
X121490003Y-73852530D01*
X121567378Y-73955889D01*
X121591795Y-74021353D01*
X121576944Y-74089626D01*
X121567378Y-74104511D01*
X121490003Y-74207869D01*
X121490002Y-74207871D01*
X121439708Y-74342717D01*
X121433301Y-74402316D01*
X121433301Y-74402323D01*
X121433300Y-74402335D01*
X121433300Y-75235816D01*
X121432828Y-75246623D01*
X121428141Y-75300197D01*
X121428141Y-75300202D01*
X121432828Y-75353776D01*
X121433300Y-75364583D01*
X121433300Y-76198070D01*
X121433301Y-76198076D01*
X121439708Y-76257683D01*
X121490002Y-76392528D01*
X121490003Y-76392530D01*
X121567378Y-76495889D01*
X121591795Y-76561353D01*
X121576944Y-76629626D01*
X121567378Y-76644511D01*
X121490003Y-76747869D01*
X121490002Y-76747871D01*
X121439708Y-76882717D01*
X121433301Y-76942316D01*
X121433301Y-76942323D01*
X121433300Y-76942335D01*
X121433300Y-77775816D01*
X121432828Y-77786623D01*
X121428141Y-77840197D01*
X121428141Y-77840202D01*
X121432828Y-77893776D01*
X121433300Y-77904583D01*
X121433300Y-78738070D01*
X121433301Y-78738076D01*
X121439708Y-78797683D01*
X121490002Y-78932528D01*
X121490003Y-78932530D01*
X121567378Y-79035889D01*
X121591795Y-79101353D01*
X121576944Y-79169626D01*
X121567378Y-79184511D01*
X121490003Y-79287869D01*
X121490002Y-79287871D01*
X121439708Y-79422717D01*
X121433301Y-79482316D01*
X121433301Y-79482323D01*
X121433300Y-79482335D01*
X121433300Y-80315816D01*
X121432828Y-80326623D01*
X121428141Y-80380197D01*
X121428141Y-80380202D01*
X121432828Y-80433776D01*
X121433300Y-80444583D01*
X121433300Y-81278070D01*
X121433301Y-81278076D01*
X121439708Y-81337683D01*
X121490002Y-81472528D01*
X121490006Y-81472535D01*
X121567689Y-81576305D01*
X121592107Y-81641769D01*
X121577256Y-81710042D01*
X121567690Y-81724927D01*
X121490447Y-81828110D01*
X121490445Y-81828113D01*
X121440203Y-81962820D01*
X121440201Y-81962827D01*
X121433800Y-82022355D01*
X121433800Y-82670200D01*
X122339240Y-82670200D01*
X122308555Y-82723347D01*
X122273800Y-82853057D01*
X122273800Y-82987343D01*
X122308555Y-83117053D01*
X122339240Y-83170200D01*
X121433800Y-83170200D01*
X121433800Y-83818044D01*
X121440201Y-83877572D01*
X121440203Y-83877579D01*
X121490445Y-84012286D01*
X121490446Y-84012288D01*
X121567690Y-84115472D01*
X121592107Y-84180936D01*
X121577256Y-84249209D01*
X121567690Y-84264094D01*
X121490004Y-84367869D01*
X121490002Y-84367871D01*
X121439708Y-84502717D01*
X121433301Y-84562316D01*
X121433301Y-84562323D01*
X121433300Y-84562335D01*
X121433300Y-85395816D01*
X121432828Y-85406623D01*
X121428141Y-85460197D01*
X121428141Y-85460202D01*
X121432828Y-85513776D01*
X121433300Y-85524583D01*
X121433300Y-86358070D01*
X121433301Y-86358076D01*
X121439708Y-86417683D01*
X121490002Y-86552528D01*
X121490003Y-86552530D01*
X121567378Y-86655889D01*
X121591795Y-86721353D01*
X121576944Y-86789626D01*
X121567378Y-86804511D01*
X121490003Y-86907869D01*
X121490002Y-86907871D01*
X121439708Y-87042717D01*
X121433301Y-87102316D01*
X121433301Y-87102323D01*
X121433300Y-87102335D01*
X121433300Y-87935816D01*
X121432828Y-87946623D01*
X121428141Y-88000197D01*
X121428141Y-88000202D01*
X121432828Y-88053776D01*
X121433300Y-88064583D01*
X121433300Y-88898070D01*
X121433301Y-88898076D01*
X121439708Y-88957683D01*
X121490002Y-89092528D01*
X121490003Y-89092530D01*
X121567378Y-89195889D01*
X121591795Y-89261353D01*
X121576944Y-89329626D01*
X121567378Y-89344511D01*
X121490003Y-89447869D01*
X121490002Y-89447871D01*
X121439708Y-89582717D01*
X121433301Y-89642316D01*
X121433301Y-89642323D01*
X121433300Y-89642335D01*
X121433300Y-90475816D01*
X121432828Y-90486623D01*
X121428141Y-90540197D01*
X121428141Y-90540202D01*
X121432828Y-90593776D01*
X121433300Y-90604583D01*
X121433300Y-91438070D01*
X121433301Y-91438076D01*
X121439708Y-91497683D01*
X121490002Y-91632528D01*
X121490003Y-91632530D01*
X121567378Y-91735889D01*
X121591795Y-91801353D01*
X121576944Y-91869626D01*
X121567378Y-91884511D01*
X121490003Y-91987869D01*
X121490002Y-91987871D01*
X121439708Y-92122717D01*
X121433301Y-92182316D01*
X121433301Y-92182323D01*
X121433300Y-92182335D01*
X121433300Y-93015816D01*
X121432828Y-93026623D01*
X121428141Y-93080197D01*
X121428141Y-93080202D01*
X121432828Y-93133776D01*
X121433300Y-93144583D01*
X121433300Y-93978070D01*
X121433301Y-93978076D01*
X121439708Y-94037683D01*
X121490002Y-94172528D01*
X121490003Y-94172530D01*
X121567378Y-94275889D01*
X121591795Y-94341353D01*
X121576944Y-94409626D01*
X121567378Y-94424511D01*
X121490003Y-94527869D01*
X121490002Y-94527871D01*
X121439708Y-94662717D01*
X121433301Y-94722316D01*
X121433301Y-94722323D01*
X121433300Y-94722335D01*
X121433300Y-96518070D01*
X121433301Y-96518076D01*
X121439708Y-96577683D01*
X121490002Y-96712528D01*
X121490003Y-96712530D01*
X121567378Y-96815889D01*
X121591795Y-96881353D01*
X121576944Y-96949626D01*
X121567378Y-96964511D01*
X121490003Y-97067869D01*
X121490002Y-97067871D01*
X121439708Y-97202717D01*
X121433301Y-97262316D01*
X121433301Y-97262323D01*
X121433300Y-97262335D01*
X121433300Y-98095816D01*
X121432828Y-98106623D01*
X121428141Y-98160197D01*
X121428141Y-98160202D01*
X121432828Y-98213776D01*
X121433300Y-98224583D01*
X121433300Y-99058070D01*
X121433301Y-99058076D01*
X121439708Y-99117683D01*
X121490002Y-99252528D01*
X121490003Y-99252530D01*
X121567378Y-99355889D01*
X121591795Y-99421353D01*
X121576944Y-99489626D01*
X121567378Y-99504511D01*
X121490003Y-99607869D01*
X121490002Y-99607871D01*
X121439708Y-99742717D01*
X121433301Y-99802316D01*
X121433301Y-99802323D01*
X121433300Y-99802335D01*
X121433300Y-100635816D01*
X121432828Y-100646623D01*
X121428141Y-100700197D01*
X121428141Y-100700202D01*
X121432828Y-100753776D01*
X121433300Y-100764583D01*
X121433300Y-101598070D01*
X121433301Y-101598076D01*
X121439708Y-101657683D01*
X121490002Y-101792528D01*
X121490003Y-101792530D01*
X121567378Y-101895889D01*
X121591795Y-101961353D01*
X121576944Y-102029626D01*
X121567378Y-102044511D01*
X121490003Y-102147869D01*
X121490002Y-102147871D01*
X121439708Y-102282717D01*
X121433301Y-102342316D01*
X121433301Y-102342323D01*
X121433300Y-102342335D01*
X121433300Y-103175816D01*
X121432828Y-103186623D01*
X121428141Y-103240197D01*
X121428141Y-103240202D01*
X121432828Y-103293776D01*
X121433300Y-103304583D01*
X121433300Y-104138070D01*
X121433301Y-104138076D01*
X121439708Y-104197683D01*
X121490002Y-104332528D01*
X121490003Y-104332530D01*
X121567378Y-104435889D01*
X121591795Y-104501353D01*
X121576944Y-104569626D01*
X121567378Y-104584511D01*
X121490003Y-104687869D01*
X121490002Y-104687871D01*
X121439708Y-104822717D01*
X121433301Y-104882316D01*
X121433301Y-104882323D01*
X121433300Y-104882335D01*
X121433300Y-105715816D01*
X121432828Y-105726623D01*
X121428141Y-105780197D01*
X121428141Y-105780202D01*
X121432828Y-105833776D01*
X121433300Y-105844583D01*
X121433300Y-106678070D01*
X121433301Y-106678076D01*
X121439708Y-106737683D01*
X121490002Y-106872528D01*
X121490006Y-106872535D01*
X121567689Y-106976305D01*
X121592107Y-107041769D01*
X121577256Y-107110042D01*
X121567690Y-107124927D01*
X121490447Y-107228110D01*
X121490445Y-107228113D01*
X121440203Y-107362820D01*
X121440201Y-107362827D01*
X121433800Y-107422355D01*
X121433800Y-108070200D01*
X122339240Y-108070200D01*
X122308555Y-108123347D01*
X122273800Y-108253057D01*
X122273800Y-108387343D01*
X122308555Y-108517053D01*
X122339240Y-108570200D01*
X121433800Y-108570200D01*
X121433800Y-109218044D01*
X121440201Y-109277572D01*
X121440203Y-109277579D01*
X121490445Y-109412286D01*
X121490446Y-109412288D01*
X121567690Y-109515472D01*
X121592107Y-109580936D01*
X121577256Y-109649209D01*
X121567690Y-109664094D01*
X121490004Y-109767869D01*
X121490002Y-109767871D01*
X121439708Y-109902717D01*
X121433301Y-109962316D01*
X121433301Y-109962323D01*
X121433300Y-109962335D01*
X121433300Y-110795816D01*
X121432828Y-110806623D01*
X121428141Y-110860197D01*
X121428141Y-110860202D01*
X121432828Y-110913776D01*
X121433300Y-110924583D01*
X121433300Y-111758070D01*
X121433301Y-111758076D01*
X121439708Y-111817683D01*
X121490002Y-111952528D01*
X121490003Y-111952530D01*
X121567378Y-112055889D01*
X121591795Y-112121353D01*
X121576944Y-112189626D01*
X121567378Y-112204511D01*
X121490003Y-112307869D01*
X121490002Y-112307871D01*
X121439708Y-112442717D01*
X121433301Y-112502316D01*
X121433301Y-112502323D01*
X121433300Y-112502335D01*
X121433300Y-113335816D01*
X121432828Y-113346623D01*
X121428141Y-113400197D01*
X121428141Y-113400202D01*
X117784299Y-113400202D01*
X117784299Y-113234581D01*
X117784771Y-113223778D01*
X117789459Y-113170200D01*
X117789459Y-113170199D01*
X117784771Y-113116618D01*
X117784299Y-113105810D01*
X117784299Y-112272329D01*
X117784298Y-112272323D01*
X117784297Y-112272316D01*
X117777891Y-112212717D01*
X117774830Y-112204511D01*
X117727597Y-112077871D01*
X117727593Y-112077864D01*
X117641347Y-111962655D01*
X117641344Y-111962652D01*
X117526135Y-111876406D01*
X117526128Y-111876402D01*
X117391282Y-111826108D01*
X117391283Y-111826108D01*
X117331683Y-111819701D01*
X117331681Y-111819700D01*
X117331673Y-111819700D01*
X117331665Y-111819700D01*
X116498183Y-111819700D01*
X116487376Y-111819228D01*
X116433802Y-111814541D01*
X116433799Y-111814541D01*
X116398665Y-111817614D01*
X116380221Y-111819228D01*
X116369416Y-111819700D01*
X115535929Y-111819700D01*
X115535923Y-111819701D01*
X115476316Y-111826108D01*
X115341471Y-111876402D01*
X115341469Y-111876403D01*
X115238111Y-111953778D01*
X115172647Y-111978195D01*
X115104374Y-111963344D01*
X115089489Y-111953778D01*
X114986130Y-111876403D01*
X114986128Y-111876402D01*
X114851282Y-111826108D01*
X114851283Y-111826108D01*
X114791683Y-111819701D01*
X114791681Y-111819700D01*
X114791673Y-111819700D01*
X114791664Y-111819700D01*
X112995929Y-111819700D01*
X112995923Y-111819701D01*
X112936316Y-111826108D01*
X112801471Y-111876402D01*
X112801469Y-111876403D01*
X112698111Y-111953778D01*
X112632647Y-111978195D01*
X112564374Y-111963344D01*
X112549489Y-111953778D01*
X112446130Y-111876403D01*
X112446128Y-111876402D01*
X112311282Y-111826108D01*
X112311283Y-111826108D01*
X112251683Y-111819701D01*
X112251681Y-111819700D01*
X112251673Y-111819700D01*
X112251665Y-111819700D01*
X111418183Y-111819700D01*
X111407376Y-111819228D01*
X111353802Y-111814541D01*
X111353799Y-111814541D01*
X111318665Y-111817614D01*
X111300221Y-111819228D01*
X111289416Y-111819700D01*
X110455929Y-111819700D01*
X110455923Y-111819701D01*
X110396316Y-111826108D01*
X110261471Y-111876402D01*
X110261464Y-111876406D01*
X110146255Y-111962652D01*
X110146252Y-111962655D01*
X110060006Y-112077864D01*
X110060002Y-112077871D01*
X110009708Y-112212717D01*
X110003301Y-112272316D01*
X110003301Y-112272323D01*
X110003300Y-112272335D01*
X110003300Y-113105818D01*
X110002828Y-113116625D01*
X109998141Y-113170197D01*
X109998141Y-113170201D01*
X108550500Y-113170201D01*
X108550500Y-78335459D01*
X108550501Y-78335446D01*
X108550501Y-78167345D01*
X108550501Y-78167343D01*
X108509577Y-78014615D01*
X108480639Y-77964495D01*
X108430520Y-77877684D01*
X108318716Y-77765880D01*
X108318715Y-77765879D01*
X108314385Y-77761549D01*
X108314374Y-77761539D01*
X106390618Y-75837783D01*
X106357133Y-75776460D01*
X106354299Y-75750102D01*
X106354299Y-75364585D01*
X106354771Y-75353776D01*
X106359459Y-75300200D01*
X106359459Y-75300199D01*
X106354771Y-75246621D01*
X106354299Y-75235813D01*
X106354299Y-74402329D01*
X106354298Y-74402323D01*
X106354297Y-74402316D01*
X106347891Y-74342717D01*
X106297596Y-74207869D01*
X106220221Y-74104509D01*
X106195804Y-74039048D01*
X106210655Y-73970775D01*
X106220216Y-73955896D01*
X106297596Y-73852531D01*
X106347891Y-73717683D01*
X106354300Y-73658073D01*
X106354299Y-72824583D01*
X106354771Y-72813776D01*
X106359459Y-72760200D01*
X106359459Y-72760199D01*
X106354771Y-72706621D01*
X106354299Y-72695813D01*
X106354299Y-71862329D01*
X106354298Y-71862323D01*
X106354297Y-71862316D01*
X106347891Y-71802717D01*
X106297596Y-71667869D01*
X106219909Y-71564093D01*
X106195492Y-71498630D01*
X106210343Y-71430357D01*
X106219910Y-71415471D01*
X106297152Y-71312289D01*
X106297154Y-71312286D01*
X106347396Y-71177579D01*
X106347398Y-71177572D01*
X106353799Y-71118044D01*
X106353800Y-71118027D01*
X106353800Y-70470200D01*
X105448360Y-70470200D01*
X105479045Y-70417053D01*
X105513800Y-70287343D01*
X105513800Y-70153057D01*
X105479045Y-70023347D01*
X105448360Y-69970200D01*
X106353800Y-69970200D01*
X106353800Y-69322372D01*
X106353799Y-69322355D01*
X106347398Y-69262827D01*
X106347396Y-69262820D01*
X106297154Y-69128113D01*
X106297152Y-69128110D01*
X106219910Y-69024929D01*
X106195492Y-68959465D01*
X106210343Y-68891192D01*
X106219905Y-68876311D01*
X106297596Y-68772531D01*
X106347891Y-68637683D01*
X106354300Y-68578073D01*
X106354300Y-68300202D01*
X110213523Y-68300202D01*
X110232593Y-68518175D01*
X110232593Y-68518179D01*
X110289222Y-68729522D01*
X110289224Y-68729526D01*
X110289225Y-68729530D01*
X110309277Y-68772531D01*
X110381697Y-68927838D01*
X110381698Y-68927839D01*
X110507202Y-69107077D01*
X110661923Y-69261798D01*
X110841161Y-69387302D01*
X111039470Y-69479775D01*
X111250823Y-69536407D01*
X111433726Y-69552408D01*
X111468798Y-69555477D01*
X111468800Y-69555477D01*
X111468802Y-69555477D01*
X111497054Y-69553005D01*
X111686777Y-69536407D01*
X111898130Y-69479775D01*
X112096439Y-69387302D01*
X112275677Y-69261798D01*
X112430398Y-69107077D01*
X112555902Y-68927839D01*
X112648375Y-68729530D01*
X112705007Y-68518177D01*
X112724077Y-68300202D01*
X115063523Y-68300202D01*
X115082593Y-68518175D01*
X115082593Y-68518179D01*
X115139222Y-68729522D01*
X115139224Y-68729526D01*
X115139225Y-68729530D01*
X115159277Y-68772531D01*
X115231697Y-68927838D01*
X115231698Y-68927839D01*
X115357202Y-69107077D01*
X115511923Y-69261798D01*
X115691161Y-69387302D01*
X115889470Y-69479775D01*
X116100823Y-69536407D01*
X116283726Y-69552408D01*
X116318798Y-69555477D01*
X116318800Y-69555477D01*
X116318802Y-69555477D01*
X116347054Y-69553005D01*
X116536777Y-69536407D01*
X116748130Y-69479775D01*
X116946439Y-69387302D01*
X117125677Y-69261798D01*
X117280398Y-69107077D01*
X117405902Y-68927839D01*
X117498375Y-68729530D01*
X117555007Y-68518177D01*
X117574077Y-68300200D01*
X117555007Y-68082223D01*
X117498375Y-67870870D01*
X117405902Y-67672562D01*
X117405900Y-67672559D01*
X117405899Y-67672557D01*
X117280399Y-67493324D01*
X117280396Y-67493321D01*
X117125677Y-67338602D01*
X116946439Y-67213098D01*
X116946440Y-67213098D01*
X116946438Y-67213097D01*
X116847284Y-67166861D01*
X116748130Y-67120625D01*
X116748126Y-67120624D01*
X116748122Y-67120622D01*
X116536777Y-67063993D01*
X116318802Y-67044923D01*
X116318798Y-67044923D01*
X116173482Y-67057636D01*
X116100823Y-67063993D01*
X116100820Y-67063993D01*
X115889477Y-67120622D01*
X115889468Y-67120626D01*
X115691161Y-67213098D01*
X115691157Y-67213100D01*
X115511921Y-67338602D01*
X115357202Y-67493321D01*
X115231700Y-67672557D01*
X115231698Y-67672561D01*
X115139226Y-67870868D01*
X115139222Y-67870877D01*
X115082593Y-68082220D01*
X115082593Y-68082224D01*
X115063523Y-68300197D01*
X115063523Y-68300202D01*
X112724077Y-68300202D01*
X112724077Y-68300200D01*
X112705007Y-68082223D01*
X112648375Y-67870870D01*
X112555902Y-67672562D01*
X112555900Y-67672559D01*
X112555899Y-67672557D01*
X112430399Y-67493324D01*
X112430396Y-67493321D01*
X112275677Y-67338602D01*
X112096439Y-67213098D01*
X112096440Y-67213098D01*
X112096438Y-67213097D01*
X111997284Y-67166861D01*
X111898130Y-67120625D01*
X111898126Y-67120624D01*
X111898122Y-67120622D01*
X111686777Y-67063993D01*
X111468802Y-67044923D01*
X111468798Y-67044923D01*
X111323482Y-67057636D01*
X111250823Y-67063993D01*
X111250820Y-67063993D01*
X111039477Y-67120622D01*
X111039468Y-67120626D01*
X110841161Y-67213098D01*
X110841157Y-67213100D01*
X110661921Y-67338602D01*
X110507202Y-67493321D01*
X110381700Y-67672557D01*
X110381698Y-67672561D01*
X110289226Y-67870868D01*
X110289222Y-67870877D01*
X110232593Y-68082220D01*
X110232593Y-68082224D01*
X110213523Y-68300197D01*
X110213523Y-68300202D01*
X106354300Y-68300202D01*
X106354299Y-67744583D01*
X106354771Y-67733776D01*
X106359459Y-67680200D01*
X106359459Y-67680199D01*
X106354771Y-67626621D01*
X106354299Y-67615813D01*
X106354299Y-66782329D01*
X106354298Y-66782323D01*
X106354297Y-66782316D01*
X106347891Y-66722717D01*
X106297596Y-66587869D01*
X106220221Y-66484509D01*
X106195804Y-66419048D01*
X106210655Y-66350775D01*
X106220216Y-66335896D01*
X106297596Y-66232531D01*
X106347891Y-66097683D01*
X106354300Y-66038073D01*
X106354299Y-65270206D01*
X109763500Y-65270206D01*
X109782664Y-65501497D01*
X109782666Y-65501508D01*
X109839642Y-65726500D01*
X109932875Y-65939048D01*
X110059816Y-66133347D01*
X110059819Y-66133351D01*
X110059821Y-66133353D01*
X110217016Y-66304113D01*
X110217019Y-66304115D01*
X110217022Y-66304118D01*
X110400165Y-66446664D01*
X110400171Y-66446668D01*
X110400174Y-66446670D01*
X110604297Y-66557136D01*
X110693819Y-66587869D01*
X110823815Y-66632497D01*
X110823817Y-66632497D01*
X110823819Y-66632498D01*
X111052751Y-66670700D01*
X111052752Y-66670700D01*
X111284848Y-66670700D01*
X111284849Y-66670700D01*
X111513781Y-66632498D01*
X111733303Y-66557136D01*
X111937426Y-66446670D01*
X112120584Y-66304113D01*
X112277779Y-66133353D01*
X112404724Y-65939049D01*
X112497957Y-65726500D01*
X112554934Y-65501505D01*
X112574100Y-65270206D01*
X115213500Y-65270206D01*
X115232664Y-65501497D01*
X115232666Y-65501508D01*
X115289642Y-65726500D01*
X115382875Y-65939048D01*
X115509816Y-66133347D01*
X115509819Y-66133351D01*
X115509821Y-66133353D01*
X115667016Y-66304113D01*
X115667019Y-66304115D01*
X115667022Y-66304118D01*
X115850165Y-66446664D01*
X115850171Y-66446668D01*
X115850174Y-66446670D01*
X116054297Y-66557136D01*
X116143819Y-66587869D01*
X116273815Y-66632497D01*
X116273817Y-66632497D01*
X116273819Y-66632498D01*
X116502751Y-66670700D01*
X116502752Y-66670700D01*
X116734848Y-66670700D01*
X116734849Y-66670700D01*
X116963781Y-66632498D01*
X117183303Y-66557136D01*
X117387426Y-66446670D01*
X117570584Y-66304113D01*
X117727779Y-66133353D01*
X117854724Y-65939049D01*
X117947957Y-65726500D01*
X118004934Y-65501505D01*
X118024100Y-65270200D01*
X118024100Y-65270193D01*
X118004935Y-65038902D01*
X118004933Y-65038891D01*
X117947957Y-64813899D01*
X117854724Y-64601351D01*
X117727783Y-64407052D01*
X117727780Y-64407049D01*
X117727779Y-64407047D01*
X117570584Y-64236287D01*
X117570579Y-64236283D01*
X117570577Y-64236281D01*
X117387434Y-64093735D01*
X117387428Y-64093731D01*
X117183304Y-63983264D01*
X117183295Y-63983261D01*
X116963784Y-63907902D01*
X116792082Y-63879250D01*
X116734849Y-63869700D01*
X116502751Y-63869700D01*
X116456964Y-63877340D01*
X116273815Y-63907902D01*
X116054304Y-63983261D01*
X116054295Y-63983264D01*
X115850171Y-64093731D01*
X115850165Y-64093735D01*
X115667022Y-64236281D01*
X115667019Y-64236284D01*
X115667016Y-64236286D01*
X115667016Y-64236287D01*
X115608067Y-64300322D01*
X115509816Y-64407052D01*
X115382875Y-64601351D01*
X115289642Y-64813899D01*
X115232666Y-65038891D01*
X115232664Y-65038902D01*
X115213500Y-65270193D01*
X115213500Y-65270206D01*
X112574100Y-65270206D01*
X112574100Y-65270200D01*
X112574100Y-65270193D01*
X112554935Y-65038902D01*
X112554933Y-65038891D01*
X112497957Y-64813899D01*
X112404724Y-64601351D01*
X112277783Y-64407052D01*
X112277780Y-64407049D01*
X112277779Y-64407047D01*
X112120584Y-64236287D01*
X112120579Y-64236283D01*
X112120577Y-64236281D01*
X111937434Y-64093735D01*
X111937428Y-64093731D01*
X111733304Y-63983264D01*
X111733295Y-63983261D01*
X111513784Y-63907902D01*
X111342082Y-63879250D01*
X111284849Y-63869700D01*
X111052751Y-63869700D01*
X111006964Y-63877340D01*
X110823815Y-63907902D01*
X110604304Y-63983261D01*
X110604295Y-63983264D01*
X110400171Y-64093731D01*
X110400165Y-64093735D01*
X110217022Y-64236281D01*
X110217019Y-64236284D01*
X110217016Y-64236286D01*
X110217016Y-64236287D01*
X110158067Y-64300322D01*
X110059816Y-64407052D01*
X109932875Y-64601351D01*
X109839642Y-64813899D01*
X109782666Y-65038891D01*
X109782664Y-65038902D01*
X109763500Y-65270193D01*
X109763500Y-65270206D01*
X106354299Y-65270206D01*
X106354299Y-65204583D01*
X106354771Y-65193776D01*
X106359459Y-65140200D01*
X106359459Y-65140199D01*
X106354771Y-65086621D01*
X106354299Y-65075813D01*
X106354299Y-64242329D01*
X106354298Y-64242323D01*
X106354297Y-64242316D01*
X106347891Y-64182717D01*
X106314701Y-64093731D01*
X106297597Y-64047871D01*
X106297593Y-64047864D01*
X106211347Y-63932655D01*
X106211344Y-63932652D01*
X106096135Y-63846406D01*
X106096128Y-63846402D01*
X105961282Y-63796108D01*
X105961283Y-63796108D01*
X105901683Y-63789701D01*
X105901681Y-63789700D01*
X105901673Y-63789700D01*
X105901665Y-63789700D01*
X105068180Y-63789700D01*
X105057373Y-63789228D01*
X105030824Y-63786905D01*
X105003801Y-63784541D01*
X105003798Y-63784541D01*
X104950224Y-63789228D01*
X104939417Y-63789700D01*
X102305929Y-63789700D01*
X102305923Y-63789701D01*
X102246316Y-63796108D01*
X102111471Y-63846402D01*
X102111464Y-63846406D01*
X101996255Y-63932652D01*
X101996252Y-63932655D01*
X101910006Y-64047864D01*
X101910002Y-64047871D01*
X101859708Y-64182717D01*
X101853949Y-64236287D01*
X101853301Y-64242323D01*
X101853300Y-64242335D01*
X101853300Y-66038070D01*
X101853301Y-66038076D01*
X101859708Y-66097683D01*
X101910002Y-66232528D01*
X101910003Y-66232530D01*
X101987378Y-66335889D01*
X102011795Y-66401353D01*
X101996944Y-66469626D01*
X101987378Y-66484511D01*
X101910003Y-66587869D01*
X101910002Y-66587871D01*
X101859708Y-66722717D01*
X101853301Y-66782316D01*
X101853301Y-66782323D01*
X101853300Y-66782335D01*
X101853300Y-68578070D01*
X101853301Y-68578076D01*
X101859708Y-68637683D01*
X101910002Y-68772528D01*
X101910006Y-68772535D01*
X101987689Y-68876305D01*
X102012107Y-68941769D01*
X101997256Y-69010042D01*
X101987690Y-69024927D01*
X101910447Y-69128110D01*
X101910445Y-69128113D01*
X101860203Y-69262820D01*
X101860201Y-69262827D01*
X101853800Y-69322355D01*
X101853800Y-69970200D01*
X104559240Y-69970200D01*
X104528555Y-70023347D01*
X104493800Y-70153057D01*
X104493800Y-70287343D01*
X104528555Y-70417053D01*
X104559240Y-70470200D01*
X101853800Y-70470200D01*
X101853800Y-71118044D01*
X101860201Y-71177572D01*
X101860203Y-71177579D01*
X101910445Y-71312286D01*
X101910446Y-71312288D01*
X101987690Y-71415472D01*
X102012107Y-71480936D01*
X101997256Y-71549209D01*
X101987690Y-71564094D01*
X101910004Y-71667869D01*
X101910002Y-71667871D01*
X101859708Y-71802717D01*
X101853301Y-71862316D01*
X101853301Y-71862323D01*
X101853300Y-71862335D01*
X101853300Y-73658070D01*
X101853301Y-73658076D01*
X101859708Y-73717683D01*
X101910002Y-73852528D01*
X101910003Y-73852530D01*
X101987378Y-73955889D01*
X102011795Y-74021353D01*
X101996944Y-74089626D01*
X101987378Y-74104511D01*
X101910003Y-74207869D01*
X101910002Y-74207871D01*
X101859708Y-74342717D01*
X101853301Y-74402316D01*
X101853301Y-74402323D01*
X101853300Y-74402335D01*
X101853300Y-76198070D01*
X101853301Y-76198076D01*
X101859708Y-76257683D01*
X101910002Y-76392528D01*
X101910003Y-76392530D01*
X101987378Y-76495889D01*
X102011795Y-76561353D01*
X101996944Y-76629626D01*
X101987378Y-76644511D01*
X101910003Y-76747869D01*
X101910002Y-76747871D01*
X101859708Y-76882717D01*
X101853301Y-76942316D01*
X101853301Y-76942323D01*
X101853300Y-76942335D01*
X101853300Y-78738070D01*
X101853301Y-78738076D01*
X101859708Y-78797683D01*
X101910002Y-78932528D01*
X101910003Y-78932530D01*
X101987378Y-79035889D01*
X102011795Y-79101353D01*
X101996944Y-79169626D01*
X101987378Y-79184511D01*
X101910003Y-79287869D01*
X101910002Y-79287871D01*
X101859708Y-79422717D01*
X101853301Y-79482316D01*
X101853301Y-79482323D01*
X101853300Y-79482335D01*
X101853300Y-81278070D01*
X101853301Y-81278076D01*
X101859708Y-81337683D01*
X101910002Y-81472528D01*
X101910003Y-81472530D01*
X101987378Y-81575889D01*
X102011795Y-81641353D01*
X101996944Y-81709626D01*
X101987378Y-81724509D01*
X101987065Y-81724929D01*
X101910003Y-81827869D01*
X101910002Y-81827871D01*
X101859708Y-81962717D01*
X101853301Y-82022316D01*
X101853301Y-82022323D01*
X101853300Y-82022335D01*
X101853300Y-83818070D01*
X101853301Y-83818076D01*
X101859708Y-83877683D01*
X101910002Y-84012528D01*
X101910003Y-84012530D01*
X101987378Y-84115889D01*
X102011795Y-84181353D01*
X101996944Y-84249626D01*
X101987378Y-84264511D01*
X101910003Y-84367869D01*
X101910002Y-84367871D01*
X101859708Y-84502717D01*
X101853301Y-84562316D01*
X101853301Y-84562323D01*
X101853300Y-84562335D01*
X101853300Y-86358070D01*
X101853301Y-86358076D01*
X101859708Y-86417683D01*
X101910002Y-86552528D01*
X101910003Y-86552530D01*
X101987378Y-86655889D01*
X102011795Y-86721353D01*
X101996944Y-86789626D01*
X101987378Y-86804511D01*
X101910003Y-86907869D01*
X101910002Y-86907871D01*
X101859708Y-87042717D01*
X101853301Y-87102316D01*
X101853301Y-87102323D01*
X101853300Y-87102335D01*
X101853300Y-88898070D01*
X101853301Y-88898076D01*
X101859708Y-88957683D01*
X101910002Y-89092528D01*
X101910003Y-89092530D01*
X101987378Y-89195889D01*
X102011795Y-89261353D01*
X101996944Y-89329626D01*
X101987378Y-89344511D01*
X101910003Y-89447869D01*
X101910002Y-89447871D01*
X101859708Y-89582717D01*
X101853301Y-89642316D01*
X101853301Y-89642323D01*
X101853300Y-89642335D01*
X101853300Y-91438070D01*
X101853301Y-91438076D01*
X101859708Y-91497683D01*
X101910002Y-91632528D01*
X101910003Y-91632530D01*
X101987378Y-91735889D01*
X102011795Y-91801353D01*
X101996944Y-91869626D01*
X101987378Y-91884511D01*
X101910003Y-91987869D01*
X101910002Y-91987871D01*
X101859708Y-92122717D01*
X101853301Y-92182316D01*
X101853301Y-92182323D01*
X101853300Y-92182335D01*
X101853300Y-93978070D01*
X101853301Y-93978076D01*
X101859708Y-94037683D01*
X101910002Y-94172528D01*
X101910003Y-94172530D01*
X101987378Y-94275889D01*
X102011795Y-94341353D01*
X101996944Y-94409626D01*
X101987378Y-94424511D01*
X101910003Y-94527869D01*
X101910002Y-94527871D01*
X101859708Y-94662717D01*
X101853301Y-94722316D01*
X101853301Y-94722323D01*
X101853300Y-94722335D01*
X101853300Y-96518070D01*
X101853301Y-96518076D01*
X101859708Y-96577683D01*
X101910002Y-96712528D01*
X101910003Y-96712530D01*
X101987378Y-96815889D01*
X102011795Y-96881353D01*
X101996944Y-96949626D01*
X101987378Y-96964511D01*
X101910003Y-97067869D01*
X101910002Y-97067871D01*
X101859708Y-97202717D01*
X101853301Y-97262316D01*
X101853301Y-97262323D01*
X101853300Y-97262335D01*
X101853300Y-99058070D01*
X101853301Y-99058076D01*
X101859708Y-99117683D01*
X101910002Y-99252528D01*
X101910003Y-99252530D01*
X101987378Y-99355889D01*
X102011795Y-99421353D01*
X101996944Y-99489626D01*
X101987378Y-99504511D01*
X101910003Y-99607869D01*
X101910002Y-99607871D01*
X101859708Y-99742717D01*
X101853301Y-99802316D01*
X101853301Y-99802323D01*
X101853300Y-99802335D01*
X101853300Y-101598070D01*
X101853301Y-101598076D01*
X101859708Y-101657683D01*
X101910002Y-101792528D01*
X101910003Y-101792530D01*
X101987378Y-101895889D01*
X102011795Y-101961353D01*
X101996944Y-102029626D01*
X101987378Y-102044511D01*
X101910003Y-102147869D01*
X101910002Y-102147871D01*
X101859708Y-102282717D01*
X101853301Y-102342316D01*
X101853301Y-102342323D01*
X101853300Y-102342335D01*
X101853300Y-104138070D01*
X101853301Y-104138076D01*
X101859708Y-104197683D01*
X101910002Y-104332528D01*
X101910003Y-104332530D01*
X101987378Y-104435889D01*
X102011795Y-104501353D01*
X101996944Y-104569626D01*
X101987378Y-104584511D01*
X101910003Y-104687869D01*
X101910002Y-104687871D01*
X101859708Y-104822717D01*
X101853301Y-104882316D01*
X101853301Y-104882323D01*
X101853300Y-104882335D01*
X101853300Y-106678070D01*
X101853301Y-106678076D01*
X101859708Y-106737683D01*
X101910002Y-106872528D01*
X101910006Y-106872535D01*
X101987689Y-106976305D01*
X102012107Y-107041769D01*
X101997256Y-107110042D01*
X101987690Y-107124927D01*
X101910447Y-107228110D01*
X101910445Y-107228113D01*
X101860203Y-107362820D01*
X101860201Y-107362827D01*
X101853800Y-107422355D01*
X101853800Y-108070200D01*
X104559240Y-108070200D01*
X104528555Y-108123347D01*
X104493800Y-108253057D01*
X104493800Y-108387343D01*
X104528555Y-108517053D01*
X104559240Y-108570200D01*
X101853800Y-108570200D01*
X101853800Y-109218044D01*
X101860201Y-109277572D01*
X101860203Y-109277579D01*
X101910445Y-109412286D01*
X101910446Y-109412288D01*
X101987690Y-109515472D01*
X102012107Y-109580936D01*
X101997256Y-109649209D01*
X101987690Y-109664094D01*
X101910004Y-109767869D01*
X101910002Y-109767871D01*
X101859708Y-109902717D01*
X101853301Y-109962316D01*
X101853301Y-109962323D01*
X101853300Y-109962335D01*
X101853300Y-111758070D01*
X101853301Y-111758076D01*
X101859708Y-111817683D01*
X101910002Y-111952528D01*
X101910003Y-111952530D01*
X101987378Y-112055889D01*
X102011795Y-112121353D01*
X101996944Y-112189626D01*
X101987378Y-112204511D01*
X101910003Y-112307869D01*
X101910002Y-112307871D01*
X101859708Y-112442717D01*
X101853301Y-112502316D01*
X101853301Y-112502323D01*
X101853300Y-112502335D01*
X101853300Y-114298070D01*
X97020500Y-114298070D01*
X97020500Y-63612254D01*
X97040185Y-63545215D01*
X97092989Y-63499460D01*
X97144500Y-63488254D01*
X130185500Y-63488254D01*
X130252539Y-63507939D01*
G37*
G04 #@! TD.AperFunction*
M02*
