G04 #@! TF.GenerationSoftware,KiCad,Pcbnew,8.0.1*
G04 #@! TF.CreationDate,2024-10-21T20:58:36+13:00*
G04 #@! TF.ProjectId,aurorawatchpcb,6175726f-7261-4776-9174-63687063622e,rev?*
G04 #@! TF.SameCoordinates,Original*
G04 #@! TF.FileFunction,Legend,Bot*
G04 #@! TF.FilePolarity,Positive*
%FSLAX46Y46*%
G04 Gerber Fmt 4.6, Leading zero omitted, Abs format (unit mm)*
G04 Created by KiCad (PCBNEW 8.0.1) date 2024-10-21 20:58:36*
%MOMM*%
%LPD*%
G01*
G04 APERTURE LIST*
%ADD10C,0.150000*%
%ADD11C,0.120000*%
%ADD12R,1.700000X3.500000*%
%ADD13O,1.700000X1.700000*%
%ADD14R,1.700000X1.700000*%
%ADD15R,3.500000X1.700000*%
%ADD16O,1.500000X1.500000*%
%ADD17O,1.800000X1.800000*%
%ADD18C,1.400000*%
G04 APERTURE END LIST*
D10*
X114655704Y-88725019D02*
X114655704Y-89534542D01*
X114655704Y-89534542D02*
X114608085Y-89629780D01*
X114608085Y-89629780D02*
X114560466Y-89677400D01*
X114560466Y-89677400D02*
X114465228Y-89725019D01*
X114465228Y-89725019D02*
X114274752Y-89725019D01*
X114274752Y-89725019D02*
X114179514Y-89677400D01*
X114179514Y-89677400D02*
X114131895Y-89629780D01*
X114131895Y-89629780D02*
X114084276Y-89534542D01*
X114084276Y-89534542D02*
X114084276Y-88725019D01*
X113084276Y-89725019D02*
X113655704Y-89725019D01*
X113369990Y-89725019D02*
X113369990Y-88725019D01*
X113369990Y-88725019D02*
X113465228Y-88867876D01*
X113465228Y-88867876D02*
X113560466Y-88963114D01*
X113560466Y-88963114D02*
X113655704Y-89010733D01*
D11*
X103393800Y-104770200D02*
X103393800Y-104370200D01*
X124393800Y-71670200D02*
X124393800Y-71270200D01*
X103393800Y-64070200D02*
X103393800Y-63770200D01*
X124393800Y-91970200D02*
X124393800Y-91570200D01*
X103393800Y-71670200D02*
X103393800Y-71270200D01*
X103393800Y-102170200D02*
X103393800Y-101770200D01*
X103393800Y-109770200D02*
X103393800Y-109370200D01*
X124393800Y-64070200D02*
X124393800Y-63770200D01*
X103393800Y-81870200D02*
X103393800Y-81470200D01*
X103393800Y-107270200D02*
X103393800Y-106870200D01*
X103393800Y-79270200D02*
X103393800Y-78870200D01*
X103393800Y-97070200D02*
X103393800Y-96670200D01*
X124393800Y-102170200D02*
X124393800Y-101770200D01*
X124393800Y-107270200D02*
X124393800Y-106870200D01*
X124393800Y-89470200D02*
X124393800Y-89070200D01*
X124393800Y-79270200D02*
X124393800Y-78870200D01*
X103393800Y-91970200D02*
X103393800Y-91570200D01*
X124393800Y-99670200D02*
X124393800Y-99270200D01*
X103393800Y-76770200D02*
X103393800Y-76370200D01*
X112393800Y-114770200D02*
X112793800Y-114770200D01*
X124393800Y-104770200D02*
X124393800Y-104370200D01*
X103393800Y-69170200D02*
X103393800Y-68770200D01*
X124393800Y-76770200D02*
X124393800Y-76370200D01*
X114993800Y-114770200D02*
X115393800Y-114770200D01*
X124393800Y-94570200D02*
X124393800Y-94170200D01*
X124393800Y-81870200D02*
X124393800Y-81470200D01*
X121386800Y-66437200D02*
X124393800Y-66437200D01*
X124393800Y-97070200D02*
X124393800Y-96670200D01*
X103393800Y-74270200D02*
X103393800Y-73870200D01*
X110193800Y-114770200D02*
X103393800Y-114770200D01*
X103393800Y-86970200D02*
X103393800Y-86570200D01*
X124393800Y-84370200D02*
X124393800Y-83970200D01*
X124393800Y-74270200D02*
X124393800Y-73870200D01*
X124393800Y-112370200D02*
X124393800Y-111970200D01*
X124393800Y-86970200D02*
X124393800Y-86570200D01*
X124393800Y-109770200D02*
X124393800Y-109370200D01*
X103393800Y-63770200D02*
X124393800Y-63770200D01*
X103393800Y-84370200D02*
X103393800Y-83970200D01*
X121386800Y-63770200D02*
X121386800Y-66437200D01*
X103393800Y-66570200D02*
X103393800Y-66170200D01*
X103393800Y-112370200D02*
X103393800Y-111970200D01*
X103393800Y-89470200D02*
X103393800Y-89070200D01*
X124393800Y-114770200D02*
X117593800Y-114770200D01*
X103393800Y-99670200D02*
X103393800Y-99270200D01*
X124393800Y-69170200D02*
X124393800Y-68770200D01*
X124393800Y-66570200D02*
X124393800Y-66170200D01*
X103393800Y-94570200D02*
X103393800Y-94170200D01*
%LPC*%
D12*
X111353800Y-114070200D03*
D13*
X111353800Y-113170200D03*
D12*
X113893800Y-114070200D03*
D14*
X113893800Y-113170200D03*
D13*
X116433800Y-113170200D03*
D12*
X116433800Y-114070200D03*
D15*
X104103800Y-65140200D03*
D13*
X105003800Y-65140200D03*
X105003800Y-67680200D03*
D15*
X104103800Y-67680200D03*
D14*
X105003800Y-70220200D03*
D15*
X104103800Y-70220200D03*
D13*
X105003800Y-72760200D03*
D15*
X104103800Y-72760200D03*
X104103800Y-75300200D03*
D13*
X105003800Y-75300200D03*
X105003800Y-77840200D03*
D15*
X104103800Y-77840200D03*
D13*
X105003800Y-80380200D03*
D15*
X104103800Y-80380200D03*
D14*
X105003800Y-82920200D03*
D15*
X104103800Y-82920200D03*
X104103800Y-85460200D03*
D13*
X105003800Y-85460200D03*
D15*
X104103800Y-88000200D03*
D13*
X105003800Y-88000200D03*
X105003800Y-90540200D03*
D15*
X104103800Y-90540200D03*
X104103800Y-93080200D03*
D13*
X105003800Y-93080200D03*
D15*
X104103800Y-95620200D03*
D14*
X105003800Y-95620200D03*
D15*
X104103800Y-98160200D03*
D13*
X105003800Y-98160200D03*
X105003800Y-100700200D03*
D15*
X104103800Y-100700200D03*
D13*
X105003800Y-103240200D03*
D15*
X104103800Y-103240200D03*
X104103800Y-105780200D03*
D13*
X105003800Y-105780200D03*
D14*
X105003800Y-108320200D03*
D15*
X104103800Y-108320200D03*
D13*
X105003800Y-110860200D03*
D15*
X104103800Y-110860200D03*
D13*
X105003800Y-113400200D03*
D15*
X104103800Y-113400200D03*
D13*
X122783800Y-113400200D03*
D15*
X123683800Y-113400200D03*
X123683800Y-110860200D03*
D13*
X122783800Y-110860200D03*
D14*
X122783800Y-108320200D03*
D15*
X123683800Y-108320200D03*
D13*
X122783800Y-105780200D03*
D15*
X123683800Y-105780200D03*
D13*
X122783800Y-103240200D03*
D15*
X123683800Y-103240200D03*
X123683800Y-100700200D03*
D13*
X122783800Y-100700200D03*
X122783800Y-98160200D03*
D15*
X123683800Y-98160200D03*
X123683800Y-95620200D03*
D14*
X122783800Y-95620200D03*
D15*
X123683800Y-93080200D03*
D13*
X122783800Y-93080200D03*
X122783800Y-90540200D03*
D15*
X123683800Y-90540200D03*
X123683800Y-88000200D03*
D13*
X122783800Y-88000200D03*
X122783800Y-85460200D03*
D15*
X123683800Y-85460200D03*
X123683800Y-82920200D03*
D14*
X122783800Y-82920200D03*
D13*
X122783800Y-80380200D03*
D15*
X123683800Y-80380200D03*
X123683800Y-77840200D03*
D13*
X122783800Y-77840200D03*
D15*
X123683800Y-75300200D03*
D13*
X122783800Y-75300200D03*
D15*
X123683800Y-72760200D03*
D13*
X122783800Y-72760200D03*
D14*
X122783800Y-70220200D03*
D15*
X123683800Y-70220200D03*
X123683800Y-67680200D03*
D13*
X122783800Y-67680200D03*
D15*
X123683800Y-65140200D03*
D13*
X122783800Y-65140200D03*
D16*
X111468800Y-68300200D03*
X116318800Y-68300200D03*
D17*
X116618800Y-65270200D03*
X111168800Y-65270200D03*
D18*
X118110000Y-123190000D03*
X115570000Y-123190000D03*
X113030000Y-123190000D03*
X110490000Y-123190000D03*
%LPD*%
M02*
