M48
; DRILL file {KiCad 8.0.1} date 2024-10-21T20:58:11+1300
; FORMAT={-:-/ absolute / metric / decimal}
; #@! TF.CreationDate,2024-10-21T20:58:11+13:00
; #@! TF.GenerationSoftware,Kicad,Pcbnew,8.0.1
; #@! TF.FileFunction,Plated,1,2,PTH
FMAT,2
METRIC
; #@! TA.AperFunction,Plated,PTH,ComponentDrill
T1C1.000
; #@! TA.AperFunction,Plated,PTH,ComponentDrill
T2C1.020
%
G90
G05
T1
X110.49Y-123.19
X113.03Y-123.19
X115.57Y-123.19
X118.11Y-123.19
T2
X105.004Y-65.14
X105.004Y-67.68
X105.004Y-70.22
X105.004Y-72.76
X105.004Y-75.3
X105.004Y-77.84
X105.004Y-80.38
X105.004Y-82.92
X105.004Y-85.46
X105.004Y-88.0
X105.004Y-90.54
X105.004Y-93.08
X105.004Y-95.62
X105.004Y-98.16
X105.004Y-100.7
X105.004Y-103.24
X105.004Y-105.78
X105.004Y-108.32
X105.004Y-110.86
X105.004Y-113.4
X111.354Y-113.17
X113.894Y-113.17
X116.434Y-113.17
X122.784Y-65.14
X122.784Y-67.68
X122.784Y-70.22
X122.784Y-72.76
X122.784Y-75.3
X122.784Y-77.84
X122.784Y-80.38
X122.784Y-82.92
X122.784Y-85.46
X122.784Y-88.0
X122.784Y-90.54
X122.784Y-93.08
X122.784Y-95.62
X122.784Y-98.16
X122.784Y-100.7
X122.784Y-103.24
X122.784Y-105.78
X122.784Y-108.32
X122.784Y-110.86
X122.784Y-113.4
M30
